<svg width="96" height="22" viewBox="0 0 96 22" fill="none" xmlns="http://www.w3.org/2000/svg">
<path d="M0 21.4013V1.18896H3.88758V9.80895H8.39364L16.3455 1.18896H21.1461L11.81 11.2952L21.1461 21.4013H16.3455L8.51145 12.93H3.88758V21.4013H0Z" fill="#18181C"/>
<path d="M24.2212 14.2081C24.3587 15.5952 24.8495 16.7049 25.6938 17.5372C26.7148 18.528 28.4426 19.0234 30.8772 19.0234C32.9388 19.0234 34.3721 18.7658 35.1771 18.2506C35.9821 17.7354 36.5123 17.0121 36.7675 16.0807H40.6256C40.233 17.9236 39.2709 19.3702 37.7394 20.4204C36.2276 21.4509 33.9402 21.9661 30.8772 21.9661C28.3641 21.9661 26.3417 21.6193 24.8103 20.9258C23.2788 20.2124 22.1694 19.2117 21.4823 17.9236C20.7951 16.6356 20.4515 15.1097 20.4515 13.3461C20.4515 11.5032 20.7951 9.93775 21.4823 8.64971C22.1694 7.36167 23.269 6.38077 24.7808 5.70703C26.2926 5.03328 28.2659 4.69641 30.7005 4.69641C33.3119 4.69641 35.2557 5.05309 36.5319 5.76647C37.8278 6.46003 38.8095 7.45084 39.477 8.73888C40.1642 10.0071 40.5078 11.5329 40.5078 13.3164V14.2081H24.2212ZM36.7086 12.1869C36.5712 10.8988 36.1687 9.8684 35.5011 9.09557C34.6568 8.10477 33.0566 7.60937 30.7005 7.60937C28.3444 7.60937 26.6657 8.11468 25.6643 9.12529C24.8986 9.89812 24.4274 10.9186 24.2507 12.1869H36.7086Z" fill="#18181C"/>
<path d="M41.0529 8.08495V5.26116H54.8951V8.08495L44.8521 18.5776H55.3368V21.4013H40.7584V18.5776L50.8308 8.08495H41.0529Z" fill="#18181C"/>
<path d="M56.0685 8.08495V5.26116H69.9107V8.08495L59.8678 18.5776H70.3524V21.4013H55.774V18.5776L65.8464 8.08495H56.0685Z" fill="#18181C"/>
<path d="M71.2608 21.4013V0H74.9423V21.4013H71.2608Z" fill="#18181C"/>
<path d="M79.5956 14.2081C79.733 15.5952 80.2239 16.7049 81.0681 17.5372C82.0891 18.528 83.8169 19.0234 86.2516 19.0234C88.3132 19.0234 89.7465 18.7658 90.5515 18.2506C91.3565 17.7354 91.8866 17.0121 92.1419 16.0807H96C95.6073 17.9236 94.6452 19.3702 93.1138 20.4204C91.6019 21.4509 89.3145 21.9661 86.2516 21.9661C83.7384 21.9661 81.7161 21.6193 80.1846 20.9258C78.6531 20.2124 77.5438 19.2117 76.8566 17.9236C76.1694 16.6356 75.8258 15.1097 75.8258 13.3461C75.8258 11.5032 76.1694 9.93775 76.8566 8.64971C77.5438 7.36167 78.6433 6.38077 80.1552 5.70703C81.667 5.03328 83.6402 4.69641 86.0749 4.69641C88.6862 4.69641 90.63 5.05309 91.9062 5.76647C93.2021 6.46003 94.1838 7.45084 94.8514 8.73888C95.5386 10.0071 95.8822 11.5329 95.8822 13.3164V14.2081H79.5956ZM92.083 12.1869C91.9455 10.8988 91.543 9.8684 90.8755 9.09557C90.0312 8.10477 88.431 7.60937 86.0749 7.60937C83.7188 7.60937 82.04 8.11468 81.0387 9.12529C80.273 9.89812 79.8017 10.9186 79.625 12.1869H92.083Z" fill="#18181C"/>
</svg>
