<svg width="390" height="844" viewBox="0 0 390 844" fill="none" xmlns="http://www.w3.org/2000/svg">
<g clip-path="url(#clip0_475_23005)">
<rect width="390" height="844" fill="#F8577E"/>
<path d="M70 389.733V337.096H80.1239V359.544H91.8584L112.566 337.096H125.068L100.755 363.414L125.068 389.733H112.566L92.1652 367.672H80.1239V389.733H70Z" fill="white"/>
<path d="M133.076 371C133.434 374.613 134.712 377.502 136.911 379.67C139.57 382.25 144.069 383.54 150.409 383.54C155.778 383.54 159.511 382.869 161.607 381.528C163.704 380.186 165.084 378.302 165.749 375.877H175.796C174.773 380.676 172.268 384.443 168.28 387.178C164.343 389.862 158.386 391.203 150.409 391.203C143.865 391.203 138.598 390.3 134.61 388.494C130.622 386.636 127.733 384.03 125.943 380.676C124.154 377.322 123.259 373.348 123.259 368.756C123.259 363.956 124.154 359.88 125.943 356.525C127.733 353.171 130.596 350.617 134.533 348.862C138.47 347.107 143.609 346.23 149.949 346.23C156.75 346.23 161.812 347.159 165.135 349.017C168.51 350.823 171.066 353.403 172.805 356.758C174.594 360.06 175.489 364.034 175.489 368.678V371H133.076ZM165.595 365.737C165.237 362.382 164.189 359.699 162.451 357.686C160.252 355.106 156.085 353.816 149.949 353.816C143.814 353.816 139.442 355.132 136.834 357.764C134.84 359.776 133.613 362.434 133.153 365.737H165.595Z" fill="white"/>
<path d="M176.909 355.055V347.701H212.956V355.055L186.802 382.379H214.106V389.733H176.142V382.379L202.372 355.055H176.909Z" fill="white"/>
<path d="M216.012 355.055V347.701H252.059V355.055L225.906 382.379H253.209V389.733H215.245V382.379L241.475 355.055H216.012Z" fill="white"/>
<path d="M255.575 389.733V334H265.162V389.733H255.575Z" fill="white"/>
<path d="M277.28 371C277.638 374.613 278.916 377.502 281.115 379.67C283.774 382.25 288.273 383.54 294.614 383.54C299.982 383.54 303.715 382.869 305.811 381.528C307.908 380.186 309.288 378.302 309.953 375.877H320C318.977 380.676 316.472 384.443 312.484 387.178C308.547 389.862 302.59 391.203 294.614 391.203C288.069 391.203 282.802 390.3 278.814 388.494C274.826 386.636 271.937 384.03 270.147 380.676C268.358 377.322 267.463 373.348 267.463 368.756C267.463 363.956 268.358 359.88 270.147 356.525C271.937 353.171 274.8 350.617 278.737 348.862C282.674 347.107 287.813 346.23 294.153 346.23C300.954 346.23 306.016 347.159 309.339 349.017C312.714 350.823 315.27 353.403 317.009 356.758C318.798 360.06 319.693 364.034 319.693 368.678V371H277.28ZM309.799 365.737C309.441 362.382 308.393 359.699 306.655 357.686C304.456 355.106 300.289 353.816 294.153 353.816C288.018 353.816 283.646 355.132 281.038 357.764C279.044 359.776 277.817 362.434 277.357 365.737H309.799Z" fill="white"/>
<path d="M127.173 431.812C126.234 433.58 124.389 434.934 121.908 435.381L121.057 433.718C124.284 433.221 126.096 431.055 126.107 429.044V428.033H128.234V429.044C128.229 431.077 130.057 433.221 133.317 433.718L132.466 435.381C129.963 434.923 128.107 433.586 127.173 431.812ZM128.173 434.928V438.144H133.759V439.74H120.754V438.144H126.196V434.928H128.173ZM135.819 433.138L135.151 431.575C137.781 431.348 139.239 430.381 139.604 429.398H135.758V427.823H146.383V429.398H142.504C142.858 430.392 144.305 431.348 147.002 431.575L146.305 433.138C143.615 432.884 141.808 431.873 141.046 430.486C140.294 431.867 138.51 432.884 135.819 433.138ZM147.554 433.68V435.276H142.04V436.331C144.515 436.514 145.985 437.403 145.996 438.867C145.985 440.519 144.118 441.442 141.04 441.436C137.93 441.442 136.062 440.519 136.062 438.867C136.062 437.398 137.543 436.508 140.068 436.331V435.276H134.582V433.68H147.554ZM143.996 438.867C143.991 438.16 142.974 437.812 141.04 437.801C139.073 437.812 138.084 438.16 138.095 438.867C138.084 439.564 139.073 439.939 141.04 439.934C142.974 439.939 143.991 439.564 143.996 438.867ZM153.625 428.724H156.846V430.293H148.404V428.724H151.636V427.21H153.625V428.724ZM159.692 427.232V431.591H161.603V433.227H159.692V437.851H157.692V427.232H159.692ZM152.631 436.265C150.553 436.271 149.095 435.188 149.1 433.552C149.095 431.901 150.553 430.796 152.631 430.796C154.686 430.796 156.128 431.901 156.128 433.552C156.128 435.188 154.686 436.271 152.631 436.265ZM151.04 433.552C151.04 434.331 151.675 434.751 152.631 434.751C153.581 434.751 154.233 434.331 154.239 433.552C154.233 432.757 153.581 432.32 152.631 432.315C151.675 432.32 151.04 432.757 151.04 433.552ZM150.465 437.028H152.454V439.586H160.2V441.193H150.465V437.028ZM177.207 427.21V429.878H179.119V431.519H177.207V434.249H175.207V427.21H177.207ZM174.019 431.641L174.246 433.265C171.909 433.735 169.727 433.851 167.71 433.851H166.494V427.84H168.494V432.199C170.202 432.166 172.052 432.017 174.019 431.641ZM177.207 438.746H169.787V439.685H177.616V441.282H167.793V437.249H175.191V436.387H167.771V434.834H177.207V438.746ZM186.229 432.282C182.947 432.282 181.046 431.431 181.052 429.84C181.046 428.276 182.947 427.42 186.229 427.42C189.505 427.42 191.394 428.276 191.4 429.84C191.394 431.431 189.505 432.282 186.229 432.282ZM186.229 428.878C184.146 428.873 183.129 429.215 183.14 429.84C183.129 430.541 184.146 430.812 186.229 430.818C188.339 430.812 189.345 430.541 189.345 429.84C189.345 429.215 188.339 428.873 186.229 428.878ZM179.754 434.536V432.956H192.726V434.536H179.754ZM191.14 438.983H183.218V439.84H191.51V441.343H181.262V437.591H189.173V436.818H181.251V435.354H191.14V438.983ZM207.291 432.138V427.21H209.28V441.475H207.291V433.762H203.728V432.138H207.291ZM199.949 430.094V436.403C202.026 436.387 203.518 436.293 205.186 435.983L205.391 437.591C203.44 437.972 201.717 438.044 199.098 438.039H197.943V428.47H204.429V430.094H199.949ZM221.205 431.812C220.265 433.58 218.42 434.934 215.939 435.381L215.089 433.718C218.315 433.221 220.127 431.055 220.138 429.044V428.033H222.265V429.044C222.26 431.077 224.089 433.221 227.348 433.718L226.497 435.381C223.995 434.923 222.138 433.586 221.205 431.812ZM222.205 434.928V438.144H227.79V439.74H214.785V438.144H220.227V434.928H222.205ZM229.85 433.138L229.182 431.575C231.812 431.348 233.27 430.381 233.635 429.398H229.79V427.823H240.414V429.398H236.536C236.889 430.392 238.337 431.348 241.033 431.575L240.337 433.138C237.646 432.884 235.839 431.873 235.077 430.486C234.326 431.867 232.541 432.884 229.85 433.138ZM241.585 433.68V435.276H236.071V436.331C238.547 436.514 240.016 437.403 240.027 438.867C240.016 440.519 238.149 441.442 235.071 441.436C231.961 441.442 230.094 440.519 230.094 438.867C230.094 437.398 231.574 436.508 234.099 436.331V435.276H228.613V433.68H241.585ZM238.027 438.867C238.022 438.16 237.005 437.812 235.071 437.801C233.105 437.812 232.116 438.16 232.127 438.867C232.116 439.564 233.105 439.939 235.071 439.934C237.005 439.939 238.022 439.564 238.027 438.867ZM253.657 432.785H255.756V434.425H253.657V441.442H251.684V427.21H253.657V432.785ZM245.585 427.436H247.574V429.337H250.723V430.934H242.364V429.337H245.585V427.436ZM246.579 431.729C248.651 431.729 250.203 433.138 250.209 435.122C250.203 437.11 248.651 438.508 246.579 438.514C244.48 438.508 242.933 437.11 242.938 435.122C242.933 433.138 244.48 431.729 246.579 431.729ZM246.579 436.878C247.574 436.884 248.292 436.227 248.303 435.122C248.292 434.033 247.574 433.359 246.579 433.348C245.574 433.359 244.844 434.033 244.85 435.122C244.844 436.227 245.574 436.884 246.579 436.878ZM266.711 441.442V427.21H268.59V441.442H266.711ZM261.993 432.702H263.695V427.536H265.562V440.807H263.695V434.282H261.374C260.562 435.906 259.242 437.315 257.219 438.475L256.092 437.077C258.965 435.37 260.236 433.298 260.501 430.508H256.877V428.906H262.485C262.479 430.26 262.335 431.53 261.993 432.702ZM115.038 456.613L114.42 455.083C117.066 454.917 118.547 454.105 118.989 453.238H115.016V451.674H125.641V453.238H121.63C122.066 454.11 123.569 454.917 126.243 455.083L125.613 456.613C122.983 456.414 121.154 455.586 120.304 454.387C119.453 455.58 117.646 456.414 115.038 456.613ZM113.839 458.575V457H126.812V458.575H113.839ZM125.226 462.983H117.304V463.84H125.596V465.343H115.348V461.591H123.259V460.818H115.337V459.365H125.226V462.983ZM137.662 454.497V451.21H139.646V458.901H137.662V456.088H135.099V454.497H137.662ZM135.093 452.006C135.087 455.801 132.855 458.193 128.546 459.276L127.8 457.707C131.071 456.934 132.651 455.448 132.927 453.608H128.552V452.006H135.093ZM132.137 460.895H137.662V459.514H139.646V465.282H130.137V459.514H132.137V460.895ZM132.137 463.702H137.662V462.442H132.137V463.702ZM152.639 460.602L150.628 460.392C151.17 457.702 151.197 455.702 151.208 454.033H142.833V452.448H153.208V453.796C153.203 455.575 153.203 457.575 152.639 460.602ZM148.115 457.188V462.077H154.468V463.696H141.496V462.077H146.137V457.188H148.115ZM170.293 451.21V455.193H172.205V456.84H170.293V461.409H168.265V451.21H170.293ZM166.409 452.276C166.409 456.127 164.011 458.812 159.746 460.022L158.917 458.442C162.1 457.552 163.901 455.901 164.221 453.906H159.536V452.276H166.409ZM161.033 460.365H163.056V463.586H170.774V465.193H161.033V460.365ZM184.823 461.691H182.834V458.182H181.027V456.547H182.834V455.32H181.027V453.718H182.834V451.21H184.823V461.691ZM180.989 458.022L181.066 459.475C178.409 459.906 175.293 459.967 173.044 459.972L172.834 458.337C173.304 458.337 173.812 458.337 174.342 458.331V453.829H173.199V452.227H180.768V453.829H179.602V458.149C180.077 458.116 180.541 458.072 180.989 458.022ZM177.696 453.829H176.276V458.298C176.746 458.287 177.221 458.276 177.696 458.254V453.829ZM177.375 460.906V463.586H185.16V465.193H175.364V460.906H177.375ZM191.883 452.724H195.104V454.293H186.662V452.724H189.894V451.21H191.883V452.724ZM197.949 451.232V455.591H199.861V457.227H197.949V461.851H195.949V451.232H197.949ZM190.889 460.265C188.811 460.271 187.353 459.188 187.358 457.552C187.353 455.901 188.811 454.796 190.889 454.796C192.944 454.796 194.386 455.901 194.386 457.552C194.386 459.188 192.944 460.271 190.889 460.265ZM189.297 457.552C189.297 458.331 189.933 458.751 190.889 458.751C191.839 458.751 192.491 458.331 192.496 457.552C192.491 456.757 191.839 456.32 190.889 456.315C189.933 456.32 189.297 456.757 189.297 457.552ZM188.723 461.028H190.712V463.586H198.458V465.193H188.723V461.028ZM214.625 465.442V451.21H216.504V465.442H214.625ZM210.084 456.597H211.609V451.536H213.476V464.807H211.609V458.193H209.526C208.747 459.89 207.426 461.37 205.25 462.613L204.128 461.254C205.94 460.199 207.067 459.022 207.741 457.646L204.432 457.983L204.205 456.287L208.305 456.072C208.432 455.547 208.515 454.994 208.559 454.414H204.913V452.818H210.504C210.504 454.155 210.388 455.42 210.084 456.597ZM227.895 451.21H229.912V465.475H227.895V451.21ZM222.188 452.215C224.337 452.215 225.928 454.182 225.934 457.276C225.928 460.403 224.337 462.359 222.188 462.359C220.011 462.359 218.42 460.403 218.426 457.276C218.42 454.182 220.011 452.215 222.188 452.215ZM222.188 454.017C221.083 454.017 220.343 455.171 220.354 457.276C220.343 459.403 221.083 460.552 222.188 460.552C223.271 460.552 224.006 459.403 224.006 457.276C224.006 455.171 223.271 454.017 222.188 454.017ZM232.889 456.685L241.48 456.381C241.514 455.602 241.519 454.867 241.519 454.133V454.066H233.32V452.464H243.475V454.133C243.469 456.193 243.469 458.166 242.817 461.243L240.834 461.066C241.116 459.884 241.281 458.84 241.375 457.878L233.132 458.276L232.889 456.685ZM231.839 463.729V462.105H244.812V463.729H231.839ZM250.725 458.238L249.99 456.674C252.885 456.326 254.466 454.917 254.676 453.525H250.526V451.967H261.162V453.525H257.018C257.206 454.917 258.781 456.326 261.709 456.674L260.985 458.238C258.488 457.901 256.703 456.834 255.841 455.376C254.979 456.834 253.2 457.901 250.725 458.238ZM249.355 459.061H262.327V460.657H256.786V465.442H254.814V460.657H249.355V459.061ZM264.785 451.834H274.509V457.083H264.785V451.834ZM266.736 455.53H272.548V453.387H266.736V455.53ZM263.167 459.834V458.243H276.172V459.834H270.824V462.287H268.852V459.834H263.167ZM264.692 461.05H266.68V463.586H274.741V465.193H264.692V461.05Z" fill="white"/>
<g filter="url(#filter0_i_475_23005)">
<path d="M-3.65773 228.666C-3.5845 228.365 -3.25168 228.207 -2.97202 228.342L74.1263 265.528C74.3334 265.627 74.4426 265.858 74.3884 266.082L68.4359 290.61C68.3628 290.911 68.031 291.069 67.7515 290.935L-9.4115 254.016C-9.6194 253.917 -9.72926 253.685 -9.67491 253.461L-3.65773 228.666Z" fill="#FFC3A3"/>
</g>
<g filter="url(#filter1_i_475_23005)">
<path d="M-1.10413 235.657C-1.03118 235.357 -0.700431 235.199 -0.421045 235.332L72.9897 270.2C73.1984 270.299 73.3089 270.531 73.2544 270.755L69.1661 287.602C69.0931 287.902 68.7624 288.06 68.483 287.927L-4.92779 253.06C-5.13644 252.961 -5.24693 252.729 -5.19246 252.504L-1.10413 235.657Z" fill="#FAD8BC"/>
</g>
<g filter="url(#filter2_i_475_23005)">
<path d="M-2.42389 241.095L71.7026 277.149L69.9985 284.171L-4.12789 248.117L-2.42389 241.095Z" fill="#FFC8B6"/>
</g>
<g filter="url(#filter3_i_475_23005)">
<path d="M78.6684 268.788L-5.44688 230.2C-5.75567 230.059 -5.82828 229.658 -5.57983 229.426C-3.86685 227.829 2.08391 222.591 10.3137 218.767C19.3269 214.58 27.9748 214.777 29.3378 214.838C29.4612 214.843 29.5707 214.898 29.655 214.988L79.2279 268.012C79.593 268.402 79.1543 269.011 78.6684 268.788Z" fill="#FFFAE0"/>
</g>
<g filter="url(#filter4_ii_475_23005)">
<circle cx="25.4368" cy="213.856" r="8.26034" transform="rotate(13.6407 25.4368 213.856)" fill="white"/>
</g>
<g filter="url(#filter5_ii_475_23005)">
<ellipse cx="16.45" cy="218.05" rx="7.74407" ry="8.26034" transform="rotate(13.6407 16.45 218.05)" fill="white"/>
</g>
<g filter="url(#filter6_ii_475_23005)">
<ellipse cx="6.58187" cy="221.499" rx="8.26034" ry="7.74407" transform="rotate(13.6407 6.58187 221.499)" fill="white"/>
</g>
<mask id="path-10-outside-1_475_23005" maskUnits="userSpaceOnUse" x="-21.7625" y="190.434" width="118.197" height="106.422" fill="black">
<rect fill="white" x="-21.7625" y="190.434" width="118.197" height="106.422"/>
<path fill-rule="evenodd" clip-rule="evenodd" d="M47.9194 226.085C50.4263 225.645 52.5592 223.768 53.1979 221.136C54.058 217.592 49.5838 208.028 49.5838 208.028C49.5838 208.028 41.2235 214.478 40.3635 218.022C39.7249 220.653 40.7598 223.299 42.7857 224.839L41.9777 228.169L32.5409 218.075C32.9501 217.385 33.2651 216.624 33.4641 215.804C34.54 211.371 31.8182 206.904 27.3848 205.829C23.6428 204.92 19.8775 206.718 18.1471 209.966C14.6933 209.254 11.2257 211.124 9.60715 214.356C9.22314 214.202 8.82289 214.074 8.40813 213.973C3.97475 212.898 -0.436879 215.395 -1.44552 219.551C-1.64566 220.376 -1.69678 221.204 -1.61549 222.01C-4.55619 222.696 -7.01197 224.975 -7.77272 228.109C-8.49377 231.081 -7.50904 234.067 -5.44649 236.037L-9.67502 253.461C-9.72937 253.685 -9.6195 253.917 -9.4116 254.016L67.7514 290.935C68.0309 291.069 68.3627 290.911 68.4357 290.61L69.1634 287.612L69.166 287.602L73.2543 270.755L73.2566 270.745L74.226 266.75L78.6682 268.788C79.1541 269.011 79.5928 268.402 79.2277 268.012L46.2935 232.785L47.9194 226.085Z"/>
</mask>
<path d="M47.9194 226.085L47.4135 223.204L45.5277 223.535L45.0761 225.395L47.9194 226.085ZM49.5838 208.028L52.234 206.788L50.6871 203.482L47.7967 205.712L49.5838 208.028ZM42.7857 224.839L45.6289 225.529L46.0804 223.669L44.5565 222.51L42.7857 224.839ZM41.9777 228.169L39.8405 230.167L43.5425 234.127L44.8209 228.859L41.9777 228.169ZM32.5409 218.075L30.0248 216.582L28.9045 218.47L30.4037 220.073L32.5409 218.075ZM18.1471 209.966L17.5564 212.832L19.7003 213.274L20.7294 211.342L18.1471 209.966ZM9.60715 214.356L8.52177 217.073L11.019 218.07L12.2232 215.666L9.60715 214.356ZM-1.61549 222.01L-0.950998 224.859L1.55356 224.275L1.29551 221.716L-1.61549 222.01ZM-5.44649 236.037L-2.60325 236.727L-2.20527 235.087L-3.42554 233.921L-5.44649 236.037ZM-9.67502 253.461L-12.5183 252.771L-9.67502 253.461ZM-9.4116 254.016L-8.14885 251.377L-8.14885 251.377L-9.4116 254.016ZM67.7514 290.935L66.4887 293.574L66.4887 293.574L67.7514 290.935ZM68.4357 290.61L71.279 291.3L68.4357 290.61ZM69.1634 287.612L66.3274 286.893L66.3237 286.907L66.3202 286.922L69.1634 287.612ZM69.166 287.602L72.0019 288.321L72.0056 288.306L72.0092 288.292L69.166 287.602ZM73.2543 270.755L76.0975 271.445L76.1011 271.43L76.1046 271.415L73.2543 270.755ZM73.2566 270.745L70.4134 270.055L70.4098 270.07L70.4063 270.085L73.2566 270.745ZM74.226 266.75L75.4459 264.091L72.2198 262.611L71.3828 266.06L74.226 266.75ZM78.6682 268.788L79.8881 266.129L79.8881 266.129L78.6682 268.788ZM79.2277 268.012L81.3649 266.014L81.3649 266.014L79.2277 268.012ZM46.2935 232.785L43.4503 232.095L43.0779 233.63L44.1563 234.783L46.2935 232.785ZM50.3546 220.446C50 221.908 48.8163 222.957 47.4135 223.204L48.4253 228.967C52.0364 228.333 55.1185 225.628 56.0411 221.826L50.3546 220.446ZM49.5838 208.028C46.9337 209.268 46.9336 209.268 46.9335 209.267C46.9335 209.267 46.9334 209.267 46.9334 209.267C46.9334 209.267 46.9334 209.267 46.9335 209.267C46.9337 209.268 46.9341 209.269 46.9348 209.27C46.9363 209.273 46.9387 209.279 46.9422 209.286C46.9492 209.301 46.9602 209.325 46.975 209.357C47.0045 209.421 47.0489 209.519 47.1058 209.646C47.2198 209.899 47.3835 210.269 47.5782 210.726C47.969 211.642 48.4778 212.891 48.9577 214.236C49.4418 215.593 49.8742 216.987 50.135 218.205C50.4204 219.539 50.4037 220.244 50.3546 220.446L56.0411 221.826C56.4221 220.256 56.1687 218.437 55.857 216.981C55.5208 215.41 54.9961 213.747 54.4691 212.27C53.938 210.781 53.382 209.418 52.9607 208.43C52.7494 207.935 52.5704 207.53 52.443 207.247C52.3793 207.105 52.3284 206.993 52.2928 206.916C52.275 206.877 52.261 206.847 52.2511 206.825C52.2461 206.814 52.2422 206.806 52.2393 206.8C52.2379 206.797 52.2367 206.794 52.2358 206.792C52.2354 206.791 52.235 206.791 52.2347 206.79C52.2345 206.79 52.2344 206.789 52.2343 206.789C52.2341 206.789 52.234 206.788 49.5838 208.028ZM43.2067 218.712C43.2558 218.51 43.5643 217.875 44.4292 216.821C45.2196 215.857 46.2426 214.817 47.2947 213.833C48.3379 212.857 49.3626 211.98 50.1299 211.345C50.5122 211.028 50.8274 210.775 51.0449 210.601C51.1536 210.515 51.2377 210.449 51.2933 210.405C51.3211 210.383 51.3419 210.367 51.355 210.357C51.3615 210.352 51.3662 210.348 51.3688 210.346C51.3702 210.345 51.371 210.345 51.3714 210.344C51.3716 210.344 51.3716 210.344 51.3715 210.344C51.3715 210.344 51.3713 210.344 51.3713 210.344C51.3712 210.345 51.3709 210.345 49.5838 208.028C47.7967 205.712 47.7965 205.712 47.7962 205.712C47.796 205.712 47.7957 205.712 47.7954 205.713C47.7948 205.713 47.7941 205.714 47.7933 205.714C47.7916 205.716 47.7894 205.717 47.7867 205.719C47.7814 205.724 47.774 205.729 47.7647 205.736C47.7461 205.751 47.7198 205.771 47.6862 205.798C47.6189 205.85 47.5226 205.926 47.401 206.023C47.1579 206.216 46.8132 206.494 46.3983 206.838C45.5712 207.522 44.452 208.479 43.2976 209.559C42.1522 210.631 40.9239 211.867 39.9048 213.11C38.9603 214.261 37.9012 215.762 37.5202 217.332L43.2067 218.712ZM44.5565 222.51C43.4229 221.648 42.8521 220.173 43.2067 218.712L37.5202 217.332C36.5977 221.133 38.0967 224.95 41.0149 227.168L44.5565 222.51ZM39.9425 224.149L39.1344 227.479L44.8209 228.859L45.6289 225.529L39.9425 224.149ZM44.1149 226.171L34.6781 216.077L30.4037 220.073L39.8405 230.167L44.1149 226.171ZM35.0569 219.568C35.6129 218.631 36.039 217.6 36.3073 216.494L30.6208 215.114C30.4912 215.648 30.2874 216.139 30.0248 216.582L35.0569 219.568ZM36.3073 216.494C37.7643 210.49 34.0784 204.442 28.0748 202.985L26.6948 208.672C29.5579 209.367 31.3156 212.251 30.6208 215.114L36.3073 216.494ZM28.0748 202.985C23.0035 201.755 17.9078 204.192 15.5648 208.591L20.7294 211.342C21.8472 209.243 24.2821 208.086 26.6948 208.672L28.0748 202.985ZM18.7378 207.101C13.8496 206.093 9.13822 208.758 6.99112 213.046L12.2232 215.666C13.3132 213.489 15.5369 212.416 17.5564 212.832L18.7378 207.101ZM10.6925 211.639C10.1801 211.434 9.64778 211.264 9.09812 211.13L7.71814 216.817C7.998 216.885 8.26613 216.971 8.52177 217.073L10.6925 211.639ZM9.09812 211.13C3.2701 209.716 -2.85778 212.964 -4.28876 218.861L1.39772 220.241C1.98402 217.825 4.6794 216.079 7.71814 216.817L9.09812 211.13ZM-4.28876 218.861C-4.56847 220.014 -4.64034 221.174 -4.52649 222.303L1.29551 221.716C1.24679 221.233 1.27715 220.738 1.39772 220.241L-4.28876 218.861ZM-2.27999 219.16C-6.25443 220.087 -9.58476 223.17 -10.616 227.419L-4.92947 228.799C-4.43918 226.779 -2.85795 225.304 -0.950998 224.859L-2.27999 219.16ZM-10.616 227.419C-11.5933 231.447 -10.2542 235.491 -7.46744 238.153L-3.42554 233.921C-4.76393 232.643 -5.39427 230.715 -4.92947 228.799L-10.616 227.419ZM-8.28973 235.347L-12.5183 252.771L-6.83177 254.151L-2.60325 236.727L-8.28973 235.347ZM-12.5183 252.771C-12.8987 254.339 -12.1296 255.959 -10.6744 256.655L-8.14885 251.377C-7.10936 251.874 -6.56002 253.031 -6.83177 254.151L-12.5183 252.771ZM-10.6744 256.655L66.4887 293.574L69.0142 288.296L-8.14885 251.377L-10.6744 256.655ZM66.4887 293.574C68.4453 294.51 70.7674 293.408 71.279 291.3L65.5925 289.92C65.9579 288.415 67.6166 287.627 69.0141 288.296L66.4887 293.574ZM71.279 291.3L72.0066 288.302L66.3202 286.922L65.5925 289.92L71.279 291.3ZM71.9994 288.331L72.0019 288.321L66.33 286.882L66.3274 286.893L71.9994 288.331ZM72.0092 288.292L76.0975 271.445L70.4111 270.065L66.3227 286.912L72.0092 288.292ZM76.1046 271.415L76.1069 271.405L70.4063 270.085L70.404 270.095L76.1046 271.415ZM76.0999 271.435L77.0692 267.44L71.3828 266.06L70.4134 270.055L76.0999 271.435ZM73.0061 269.41L77.4482 271.447L79.8881 266.129L75.4459 264.091L73.0061 269.41ZM77.4482 271.447C80.8499 273.008 83.9205 268.747 81.3649 266.014L77.0905 270.01C75.2652 268.058 77.4583 265.014 79.8881 266.129L77.4482 271.447ZM81.3649 266.014L48.4307 230.787L44.1563 234.783L77.0905 270.01L81.3649 266.014ZM49.1368 233.475L50.7626 226.775L45.0761 225.395L43.4503 232.095L49.1368 233.475Z" fill="white" mask="url(#path-10-outside-1_475_23005)"/>
<g filter="url(#filter7_ii_475_23005)">
<circle cx="0.254671" cy="230.057" r="8.26034" transform="rotate(13.6407 0.254671 230.057)" fill="white"/>
</g>
<g filter="url(#filter8_i_475_23005)">
<rect x="45.4592" y="213.822" width="5.28277" height="27.7346" rx="0.487628" transform="rotate(13.6407 45.4592 213.822)" fill="#FFCCC1"/>
</g>
<g filter="url(#filter9_ii_475_23005)">
<path d="M53.1979 221.136C52.3379 224.68 48.7675 226.856 45.2234 225.996C41.6793 225.136 39.5034 221.566 40.3635 218.022C41.2236 214.478 49.5839 208.028 49.5839 208.028C49.5839 208.028 54.058 217.592 53.1979 221.136Z" fill="#F8576A"/>
</g>
<path d="M143.331 590.908C143.331 590.91 143.331 590.911 143.331 590.913C143.331 590.911 143.331 590.91 143.331 590.908ZM143.331 590.908L141.78 590.673L143.331 590.908C143.331 590.908 143.331 590.908 143.331 590.908ZM116.386 542.879C115.355 542.757 114.307 542.653 113.242 542.568C114.119 541.81 114.863 540.903 115.433 539.884C115.52 540.972 115.857 541.989 116.386 542.879ZM116.721 535.23C116.711 535.249 116.701 535.269 116.691 535.288C116.693 535.203 116.694 535.117 116.694 535.031C116.694 533.957 116.373 532.788 115.943 531.675C115.505 530.537 114.905 529.334 114.244 528.157C112.924 525.803 111.297 523.437 110.046 521.714C108.402 519.45 105.082 519.45 103.439 521.714C102.187 523.437 100.561 525.803 99.2398 528.157C98.5796 529.334 97.9796 530.537 97.5409 531.675C97.156 532.673 96.8577 533.715 96.8001 534.695C96.15 533.525 95.3865 532.357 94.7042 531.374C93.0924 529.053 89.7244 529.053 88.1126 531.374C87.3261 532.507 86.4317 533.886 85.7275 535.23C85.0648 536.495 84.4161 538.007 84.4161 539.314C84.4161 541.34 85.2781 543.164 86.6519 544.439C81.9434 545.592 77.8672 547.17 74.7766 549.083C71.522 551.099 69.093 553.661 68.5239 556.72C68.443 556.914 68.3983 557.126 68.3983 557.348V558.074V558.491V558.909V574.148V589.805V590.607C68.3983 590.855 68.4533 591.089 68.5517 591.299C69.0096 593.521 70.4515 595.473 72.4314 597.12C74.5344 598.87 77.3651 600.383 80.6868 601.624C87.336 604.108 96.2113 605.602 105.907 605.602C115.602 605.602 124.477 604.108 131.126 601.624C134.448 600.383 137.279 598.87 139.382 597.12C141.362 595.473 142.803 593.521 143.261 591.299C143.36 591.089 143.415 590.855 143.415 590.607V589.805V558.911C143.415 558.87 143.413 558.829 143.41 558.788V558.751C143.413 558.665 143.415 558.578 143.415 558.491C143.415 558.421 143.414 558.352 143.412 558.282C143.414 558.213 143.415 558.143 143.415 558.074C143.415 557.987 143.413 557.9 143.41 557.814V557.346C143.41 557.131 143.368 556.925 143.292 556.737C142.77 553.896 140.642 551.485 137.763 549.552C134.912 547.637 131.11 546.04 126.693 544.835C128.335 543.558 129.394 541.56 129.394 539.314C129.394 538.007 128.746 536.495 128.083 535.23C127.379 533.886 126.484 532.507 125.698 531.374C124.086 529.053 120.718 529.053 119.106 531.374C118.32 532.507 117.425 533.886 116.721 535.23ZM97.5521 542.656C97.9367 541.95 98.2035 541.171 98.3255 540.344C98.8225 541.129 99.4263 541.841 100.116 542.457C99.2514 542.511 98.3963 542.578 97.5521 542.656ZM126.077 545.264C126.077 545.264 126.077 545.264 126.077 545.264L126.077 545.264Z" fill="white" stroke="white" stroke-width="3.20355"/>
<g filter="url(#filter10_ii_475_23005)">
<path fill-rule="evenodd" clip-rule="evenodd" d="M141.813 558.908H70.0002V589.749C70 589.767 69.9999 589.786 69.9999 589.804C69.9999 589.823 70 589.841 70.0002 589.86V590.639H70.061C71.1544 598.091 86.7849 604 105.906 604C125.028 604 140.658 598.091 141.752 590.639H141.813V558.908Z" fill="#FFB8C0"/>
</g>
<g filter="url(#filter11_i_475_23005)">
<path fill-rule="evenodd" clip-rule="evenodd" d="M100.454 586.107C99.4699 587.101 98.1048 587.717 96.5958 587.717C93.5982 587.717 91.1681 585.287 91.1681 582.289V581.401C90.2884 583.212 88.4316 584.46 86.2832 584.46C83.2856 584.46 80.8555 582.03 80.8555 579.033V568.243L80.8555 568.243V574.148C80.8555 577.145 78.4254 579.575 75.4278 579.575C72.4302 579.575 70.0001 577.145 70.0001 574.148V558.115L69.9999 558.073L70.0001 558.032V557.322H70.0494C71.0379 549.831 86.7136 543.878 105.906 543.878C125.099 543.878 140.775 549.831 141.763 557.322H141.808V557.846C141.811 557.921 141.813 557.997 141.813 558.073C141.813 558.15 141.811 558.226 141.808 558.301V574.148C141.808 577.145 139.378 579.575 136.381 579.575C134.089 579.575 132.129 578.155 131.333 576.147V579.033C131.333 582.03 128.903 584.46 125.905 584.46C123.757 584.46 121.9 583.212 121.02 581.401V582.289C121.02 585.287 118.59 587.717 115.593 587.717C114.26 587.717 113.04 587.237 112.096 586.441C111.348 589.058 108.938 590.974 106.081 590.974C103.219 590.974 100.851 588.859 100.454 586.107Z" fill="#FFF3D0"/>
</g>
<g filter="url(#filter12_i_475_23005)">
<ellipse cx="105.906" cy="558.49" rx="35.9064" ry="14.1956" fill="#FFFAEC"/>
</g>
<g filter="url(#filter13_i_475_23005)">
<rect x="103.401" y="528.35" width="6.68026" height="35.0714" rx="2.66962" fill="#FFD9DE"/>
</g>
<g filter="url(#filter14_ii_475_23005)">
<path d="M115.093 535.031C115.093 539.642 111.354 543.381 106.742 543.381C102.13 543.381 98.3918 539.642 98.3918 535.031C98.3918 530.419 106.742 520 106.742 520C106.742 520 115.093 530.419 115.093 535.031Z" fill="#F8576A"/>
</g>
<g filter="url(#filter15_i_475_23005)">
<rect x="89.2516" y="535.001" width="4.31247" height="22.6405" rx="1.72339" fill="#FFD9DE"/>
</g>
<g filter="url(#filter16_ii_475_23005)">
<path d="M96.7989 539.314C96.7989 542.291 94.3855 544.705 91.4083 544.705C88.4312 544.705 86.0177 542.291 86.0177 539.314C86.0177 536.337 91.4083 529.611 91.4083 529.611C91.4083 529.611 96.7989 536.337 96.7989 539.314Z" fill="#F8576A"/>
</g>
<g filter="url(#filter17_i_475_23005)">
<rect x="120.245" y="535.001" width="4.31247" height="22.6405" rx="1.72339" fill="#FFD9DE"/>
</g>
<g filter="url(#filter18_ii_475_23005)">
<path d="M127.793 539.314C127.793 542.291 125.379 544.705 122.402 544.705C119.425 544.705 117.011 542.291 117.011 539.314C117.011 536.337 122.402 529.611 122.402 529.611C122.402 529.611 127.793 536.337 127.793 539.314Z" fill="#F8576A"/>
</g>
<mask id="path-25-outside-2_475_23005" maskUnits="userSpaceOnUse" x="246.728" y="598.702" width="118.64" height="124.535" fill="black">
<rect fill="white" x="246.728" y="598.702" width="118.64" height="124.535"/>
<path fill-rule="evenodd" clip-rule="evenodd" d="M300.204 640.524C299.695 639.6 299.809 638.466 300.273 637.519C301.477 635.059 301.503 632.07 300.08 629.489C298.482 626.589 291.877 623.168 287.927 621.321C286.388 620.602 284.64 621.566 284.427 623.25C283.879 627.577 283.247 634.988 284.845 637.887C286.273 640.478 288.829 642.054 291.564 642.341C292.594 642.449 293.589 642.937 294.088 643.844C294.769 645.079 294.338 646.631 293.141 647.378C277.661 657.043 268.354 669.232 271.963 675.78C272.099 676.026 272.251 676.26 272.418 676.484C272.429 676.498 272.425 676.519 272.409 676.528C272.395 676.535 272.39 676.553 272.397 676.568L287.921 704.727L288.324 705.459C288.334 705.475 288.354 705.481 288.371 705.472C288.386 705.464 288.404 705.468 288.415 705.481C293.184 711.7 310.394 709.224 327.816 699.62C345.238 690.015 356.518 676.785 353.807 669.432C353.801 669.416 353.808 669.399 353.823 669.39C353.839 669.381 353.845 669.361 353.836 669.344L353.433 668.612L337.909 640.453C337.901 640.439 337.883 640.433 337.869 640.441C337.853 640.45 337.833 640.443 337.827 640.426C337.728 640.165 337.61 639.911 337.475 639.665C333.981 633.327 319.556 634.402 303.727 641.669C302.439 642.261 300.889 641.765 300.204 640.524Z"/>
</mask>
<g filter="url(#filter19_ii_475_23005)">
<path fill-rule="evenodd" clip-rule="evenodd" d="M300.204 640.524C299.695 639.6 299.809 638.466 300.273 637.519C301.477 635.059 301.503 632.07 300.08 629.489C298.482 626.589 291.877 623.168 287.927 621.321C286.388 620.602 284.64 621.566 284.427 623.25C283.879 627.577 283.247 634.988 284.845 637.887C286.273 640.478 288.829 642.054 291.564 642.341C292.594 642.449 293.589 642.937 294.088 643.844C294.769 645.079 294.338 646.631 293.141 647.378C277.661 657.043 268.354 669.232 271.963 675.78C272.099 676.026 272.251 676.26 272.418 676.484C272.429 676.498 272.425 676.519 272.409 676.528C272.395 676.535 272.39 676.553 272.397 676.568L287.921 704.727L288.324 705.459C288.334 705.475 288.354 705.481 288.371 705.472C288.386 705.464 288.404 705.468 288.415 705.481C293.184 711.7 310.394 709.224 327.816 699.62C345.238 690.015 356.518 676.785 353.807 669.432C353.801 669.416 353.808 669.399 353.823 669.39C353.839 669.381 353.845 669.361 353.836 669.344L353.433 668.612L337.909 640.453C337.901 640.439 337.883 640.433 337.869 640.441C337.853 640.45 337.833 640.443 337.827 640.426C337.728 640.165 337.61 639.911 337.475 639.665C333.981 633.327 319.556 634.402 303.727 641.669C302.439 642.261 300.889 641.765 300.204 640.524Z" fill="white"/>
</g>
<path d="M353.433 668.612L356.22 667.075L353.433 668.612ZM303.727 641.669L305.056 644.562L303.727 641.669ZM337.827 640.426L340.802 639.293L337.827 640.426ZM353.836 669.344L356.624 667.807L353.836 669.344ZM288.415 705.481L285.889 707.419L288.415 705.481ZM288.371 705.472L286.834 702.685L288.371 705.472ZM337.869 640.441L336.332 637.653L337.869 640.441ZM293.141 647.378L291.456 644.678L293.141 647.378ZM272.418 676.484L269.872 678.395L272.418 676.484ZM272.409 676.528L273.946 679.315L272.409 676.528ZM353.807 669.432L356.794 668.331L353.807 669.432ZM353.823 669.39L352.286 666.603L353.823 669.39ZM287.927 621.321L286.579 624.205L287.927 621.321ZM300.273 637.519L297.414 636.12L300.273 637.519ZM297.293 631.025C298.193 632.66 298.181 634.551 297.414 636.12L303.132 638.918C304.773 635.566 304.813 631.48 302.868 627.952L297.293 631.025ZM286.579 624.205C288.505 625.106 291.019 626.363 293.212 627.718C294.31 628.396 295.272 629.065 296.02 629.691C296.81 630.351 297.173 630.809 297.293 631.025L302.868 627.952C302.188 626.719 301.126 625.661 300.105 624.807C299.042 623.918 297.806 623.072 296.559 622.302C294.063 620.76 291.298 619.383 289.275 618.437L286.579 624.205ZM287.633 636.351C287.513 636.134 287.32 635.583 287.183 634.562C287.054 633.595 287.002 632.425 287.014 631.135C287.039 628.556 287.318 625.76 287.585 623.65L281.269 622.851C280.988 625.067 280.677 628.139 280.648 631.073C280.634 632.539 280.689 634.036 280.873 635.409C281.05 636.728 281.377 638.191 282.057 639.424L287.633 636.351ZM291.896 639.175C290.152 638.992 288.537 637.991 287.633 636.351L282.057 639.424C284.01 642.966 287.506 645.116 291.232 645.507L291.896 639.175ZM291.456 644.678C283.486 649.654 276.958 655.365 272.848 660.836C270.797 663.568 269.25 666.369 268.503 669.098C267.749 671.846 267.757 674.744 269.176 677.317L274.751 674.243C274.364 673.542 274.182 672.461 274.643 670.78C275.109 669.08 276.18 667.003 277.939 664.66C281.451 659.984 287.317 654.768 294.827 650.078L291.456 644.678ZM269.176 677.317C269.383 677.694 269.616 678.053 269.872 678.395L274.964 674.573C274.885 674.467 274.814 674.358 274.751 674.243L269.176 677.317ZM269.61 678.104L285.133 706.264L290.709 703.19L275.185 675.031L269.61 678.104ZM285.133 706.264L285.537 706.996L291.112 703.922L290.709 703.19L285.133 706.264ZM285.889 707.419C287.723 709.81 290.533 711.088 293.531 711.665C296.55 712.246 300.075 712.187 303.835 711.633C311.367 710.524 320.387 707.35 329.353 702.407L326.279 696.832C317.823 701.493 309.527 704.359 302.907 705.335C299.59 705.823 296.829 705.817 294.735 705.414C292.621 705.006 291.491 704.262 290.94 703.544L285.889 707.419ZM329.353 702.407C338.318 697.465 345.818 691.532 350.777 685.755C353.252 682.871 355.184 679.923 356.304 677.06C357.417 674.216 357.837 671.159 356.794 668.331L350.82 670.534C351.133 671.382 351.16 672.736 350.375 674.741C349.598 676.727 348.13 679.065 345.946 681.608C341.587 686.686 334.735 692.17 326.279 696.832L329.353 702.407ZM356.624 667.807L356.22 667.075L350.645 670.149L351.048 670.881L356.624 667.807ZM356.22 667.075L340.697 638.916L335.121 641.99L350.645 670.149L356.22 667.075ZM340.802 639.293C340.65 638.894 340.471 638.505 340.263 638.128L334.687 641.202C334.75 641.316 334.805 641.435 334.852 641.558L340.802 639.293ZM340.263 638.128C338.891 635.64 336.553 634.102 333.934 633.254C331.337 632.413 328.279 632.18 325.023 632.388C318.503 632.805 310.552 635.033 302.399 638.776L305.056 644.562C312.731 641.038 319.907 639.095 325.43 638.742C328.195 638.565 330.388 638.798 331.973 639.311C333.536 639.817 334.312 640.521 334.687 641.202L340.263 638.128ZM302.399 638.776C302.51 638.725 302.626 638.725 302.718 638.755C302.813 638.786 302.922 638.861 302.992 638.987L297.416 642.06C298.921 644.791 302.281 645.836 305.056 644.562L302.399 638.776ZM336.332 637.653C338.022 636.722 340.124 637.513 340.802 639.293L334.852 641.558C335.542 643.372 337.685 644.178 339.406 643.229L336.332 637.653ZM355.36 672.178C356.916 671.32 357.482 669.363 356.624 667.807L351.048 670.881C350.209 669.358 350.763 667.442 352.286 666.603L355.36 672.178ZM289.908 708.26C288.547 709.01 286.839 708.657 285.889 707.419L290.94 703.544C289.97 702.279 288.224 701.918 286.834 702.685L289.908 708.26ZM285.537 706.996C286.395 708.552 288.352 709.118 289.908 708.26L286.834 702.685C288.357 701.845 290.273 702.399 291.112 703.922L285.537 706.996ZM270.872 673.74C269.318 674.596 268.753 676.551 269.61 678.104L275.185 675.031C276.026 676.556 275.471 678.474 273.946 679.315L270.872 673.74ZM340.697 638.916C339.84 637.362 337.886 636.797 336.332 637.653L339.406 643.229C337.881 644.07 335.962 643.515 335.121 641.99L340.697 638.916ZM291.301 645.381C291.137 645.083 291.269 644.794 291.456 644.678L294.827 650.078C297.407 648.467 298.402 645.076 296.876 642.307L291.301 645.381ZM291.232 645.507C291.296 645.513 291.35 645.525 291.392 645.538C291.433 645.551 291.454 645.562 291.457 645.563C291.459 645.564 291.438 645.553 291.407 645.522C291.373 645.49 291.334 645.442 291.301 645.381L296.876 642.307C295.721 640.213 293.603 639.354 291.896 639.175L291.232 645.507ZM269.872 678.395C268.729 676.872 269.183 674.671 270.872 673.74L273.946 679.315C275.667 678.367 276.129 676.125 274.964 674.573L269.872 678.395ZM356.794 668.331C357.334 669.795 356.72 671.428 355.36 672.178L352.286 666.603C350.896 667.369 350.269 669.038 350.82 670.534L356.794 668.331ZM289.275 618.437C285.781 616.804 281.753 619.024 281.269 622.851L287.585 623.65C287.56 623.851 287.421 624.059 287.217 624.172C287.012 624.285 286.762 624.291 286.579 624.205L289.275 618.437ZM297.414 636.12C296.648 637.685 296.259 639.96 297.416 642.06L302.992 638.987C303.023 639.044 303.04 639.096 303.048 639.133C303.055 639.168 303.053 639.182 303.054 639.171C303.054 639.16 303.057 639.129 303.07 639.081C303.083 639.034 303.103 638.978 303.132 638.918L297.414 636.12Z" fill="white" mask="url(#path-25-outside-2_475_23005)"/>
<g filter="url(#filter20_ii_475_23005)">
<path fill-rule="evenodd" clip-rule="evenodd" d="M337.895 640.427L272.383 676.542L287.908 704.703C287.912 704.711 287.917 704.719 287.921 704.727C287.925 704.735 287.93 704.743 287.934 704.751L288.341 705.489L288.397 705.458C293.141 711.706 310.372 709.236 327.816 699.62C345.259 690.003 356.547 676.752 353.797 669.405L353.853 669.374L337.895 640.427Z" fill="#91BBFF"/>
</g>
<g filter="url(#filter21_i_475_23005)">
<ellipse cx="304.719" cy="657.723" rx="37.4034" ry="14.7874" transform="rotate(-28.8668 304.719 657.723)" fill="#D6E7FF"/>
</g>
<g filter="url(#filter22_i_475_23005)">
<rect x="286.056" y="629.273" width="6.95877" height="36.5336" rx="0.530545" transform="rotate(-28.8668 286.056 629.273)" fill="#84B5FE"/>
</g>
<g filter="url(#filter23_ii_475_23005)">
<path d="M300.08 629.489C302.4 633.696 300.869 638.986 296.662 641.306C292.455 643.625 287.164 642.095 284.845 637.888C282.526 633.68 284.904 619.976 284.904 619.976C284.904 619.976 297.761 625.282 300.08 629.489Z" fill="#F8576A"/>
</g>
</g>
<defs>
<filter id="filter0_i_475_23005" x="-9.68872" y="227.318" width="84.0909" height="63.6647" filterUnits="userSpaceOnUse" color-interpolation-filters="sRGB">
<feFlood flood-opacity="0" result="BackgroundImageFix"/>
<feBlend mode="normal" in="SourceGraphic" in2="BackgroundImageFix" result="shape"/>
<feColorMatrix in="SourceAlpha" type="matrix" values="0 0 0 0 0 0 0 0 0 0 0 0 0 0 0 0 0 0 127 0" result="hardAlpha"/>
<feOffset dy="-0.975256"/>
<feGaussianBlur stdDeviation="0.487628"/>
<feComposite in2="hardAlpha" operator="arithmetic" k2="-1" k3="1"/>
<feColorMatrix type="matrix" values="0 0 0 0 1 0 0 0 0 0.798318 0 0 0 0 0.652273 0 0 0 1 0"/>
<feBlend mode="normal" in2="shape" result="effect1_innerShadow_475_23005"/>
</filter>
<filter id="filter1_i_475_23005" x="-5.20627" y="235.285" width="78.4745" height="53.6652" filterUnits="userSpaceOnUse" color-interpolation-filters="sRGB">
<feFlood flood-opacity="0" result="BackgroundImageFix"/>
<feBlend mode="normal" in="SourceGraphic" in2="BackgroundImageFix" result="shape"/>
<feColorMatrix in="SourceAlpha" type="matrix" values="0 0 0 0 0 0 0 0 0 0 0 0 0 0 0 0 0 0 127 0" result="hardAlpha"/>
<feOffset dy="0.975256"/>
<feGaussianBlur stdDeviation="0.975256"/>
<feComposite in2="hardAlpha" operator="arithmetic" k2="-1" k3="1"/>
<feColorMatrix type="matrix" values="0 0 0 0 1 0 0 0 0 0.949162 0 0 0 0 0.860606 0 0 0 1 0"/>
<feBlend mode="normal" in2="shape" result="effect1_innerShadow_475_23005"/>
</filter>
<filter id="filter2_i_475_23005" x="-4.1279" y="240.12" width="75.8304" height="44.0509" filterUnits="userSpaceOnUse" color-interpolation-filters="sRGB">
<feFlood flood-opacity="0" result="BackgroundImageFix"/>
<feBlend mode="normal" in="SourceGraphic" in2="BackgroundImageFix" result="shape"/>
<feColorMatrix in="SourceAlpha" type="matrix" values="0 0 0 0 0 0 0 0 0 0 0 0 0 0 0 0 0 0 127 0" result="hardAlpha"/>
<feOffset dy="-0.975256"/>
<feGaussianBlur stdDeviation="0.975256"/>
<feComposite in2="hardAlpha" operator="arithmetic" k2="-1" k3="1"/>
<feColorMatrix type="matrix" values="0 0 0 0 0.970768 0 0 0 0 0.420465 0 0 0 0 0.246685 0 0 0 0.5 0"/>
<feBlend mode="normal" in2="shape" result="effect1_innerShadow_475_23005"/>
</filter>
<filter id="filter3_i_475_23005" x="-5.72937" y="214.816" width="85.0923" height="54.9943" filterUnits="userSpaceOnUse" color-interpolation-filters="sRGB">
<feFlood flood-opacity="0" result="BackgroundImageFix"/>
<feBlend mode="normal" in="SourceGraphic" in2="BackgroundImageFix" result="shape"/>
<feColorMatrix in="SourceAlpha" type="matrix" values="0 0 0 0 0 0 0 0 0 0 0 0 0 0 0 0 0 0 127 0" result="hardAlpha"/>
<feOffset dy="0.975256"/>
<feGaussianBlur stdDeviation="1.21907"/>
<feComposite in2="hardAlpha" operator="arithmetic" k2="-1" k3="1"/>
<feColorMatrix type="matrix" values="0 0 0 0 1 0 0 0 0 0.896866 0 0 0 0 0.773106 0 0 0 1 0"/>
<feBlend mode="normal" in2="shape" result="effect1_innerShadow_475_23005"/>
</filter>
<filter id="filter4_ii_475_23005" x="16.6869" y="205.106" width="17.134" height="17.4997" filterUnits="userSpaceOnUse" color-interpolation-filters="sRGB">
<feFlood flood-opacity="0" result="BackgroundImageFix"/>
<feBlend mode="normal" in="SourceGraphic" in2="BackgroundImageFix" result="shape"/>
<feColorMatrix in="SourceAlpha" type="matrix" values="0 0 0 0 0 0 0 0 0 0 0 0 0 0 0 0 0 0 127 0" result="hardAlpha"/>
<feOffset dx="-0.487628" dy="-0.487628"/>
<feGaussianBlur stdDeviation="0.609535"/>
<feComposite in2="hardAlpha" operator="arithmetic" k2="-1" k3="1"/>
<feColorMatrix type="matrix" values="0 0 0 0 1 0 0 0 0 0.825455 0 0 0 0 0.727273 0 0 0 0.25 0"/>
<feBlend mode="normal" in2="shape" result="effect1_innerShadow_475_23005"/>
<feColorMatrix in="SourceAlpha" type="matrix" values="0 0 0 0 0 0 0 0 0 0 0 0 0 0 0 0 0 0 127 0" result="hardAlpha"/>
<feOffset dx="0.121907" dy="0.487628"/>
<feGaussianBlur stdDeviation="0.487628"/>
<feComposite in2="hardAlpha" operator="arithmetic" k2="-1" k3="1"/>
<feColorMatrix type="matrix" values="0 0 0 0 1 0 0 0 0 0.946469 0 0 0 0 0.918939 0 0 0 1 0"/>
<feBlend mode="normal" in2="effect1_innerShadow_475_23005" result="effect2_innerShadow_475_23005"/>
</filter>
<filter id="filter5_ii_475_23005" x="8.18681" y="209.328" width="16.1607" height="17.444" filterUnits="userSpaceOnUse" color-interpolation-filters="sRGB">
<feFlood flood-opacity="0" result="BackgroundImageFix"/>
<feBlend mode="normal" in="SourceGraphic" in2="BackgroundImageFix" result="shape"/>
<feColorMatrix in="SourceAlpha" type="matrix" values="0 0 0 0 0 0 0 0 0 0 0 0 0 0 0 0 0 0 127 0" result="hardAlpha"/>
<feOffset dx="-0.487628" dy="-0.487628"/>
<feGaussianBlur stdDeviation="0.609535"/>
<feComposite in2="hardAlpha" operator="arithmetic" k2="-1" k3="1"/>
<feColorMatrix type="matrix" values="0 0 0 0 1 0 0 0 0 0.825455 0 0 0 0 0.727273 0 0 0 0.25 0"/>
<feBlend mode="normal" in2="shape" result="effect1_innerShadow_475_23005"/>
<feColorMatrix in="SourceAlpha" type="matrix" values="0 0 0 0 0 0 0 0 0 0 0 0 0 0 0 0 0 0 127 0" result="hardAlpha"/>
<feOffset dx="0.121907" dy="0.487628"/>
<feGaussianBlur stdDeviation="0.487628"/>
<feComposite in2="hardAlpha" operator="arithmetic" k2="-1" k3="1"/>
<feColorMatrix type="matrix" values="0 0 0 0 1 0 0 0 0 0.946469 0 0 0 0 0.918939 0 0 0 1 0"/>
<feBlend mode="normal" in2="effect1_innerShadow_475_23005" result="effect2_innerShadow_475_23005"/>
</filter>
<filter id="filter6_ii_475_23005" x="-2.14003" y="213.236" width="17.0781" height="16.526" filterUnits="userSpaceOnUse" color-interpolation-filters="sRGB">
<feFlood flood-opacity="0" result="BackgroundImageFix"/>
<feBlend mode="normal" in="SourceGraphic" in2="BackgroundImageFix" result="shape"/>
<feColorMatrix in="SourceAlpha" type="matrix" values="0 0 0 0 0 0 0 0 0 0 0 0 0 0 0 0 0 0 127 0" result="hardAlpha"/>
<feOffset dx="-0.487628" dy="-0.487628"/>
<feGaussianBlur stdDeviation="0.609535"/>
<feComposite in2="hardAlpha" operator="arithmetic" k2="-1" k3="1"/>
<feColorMatrix type="matrix" values="0 0 0 0 1 0 0 0 0 0.825455 0 0 0 0 0.727273 0 0 0 0.25 0"/>
<feBlend mode="normal" in2="shape" result="effect1_innerShadow_475_23005"/>
<feColorMatrix in="SourceAlpha" type="matrix" values="0 0 0 0 0 0 0 0 0 0 0 0 0 0 0 0 0 0 127 0" result="hardAlpha"/>
<feOffset dx="0.121907" dy="0.487628"/>
<feGaussianBlur stdDeviation="0.487628"/>
<feComposite in2="hardAlpha" operator="arithmetic" k2="-1" k3="1"/>
<feColorMatrix type="matrix" values="0 0 0 0 1 0 0 0 0 0.946469 0 0 0 0 0.918939 0 0 0 1 0"/>
<feBlend mode="normal" in2="effect1_innerShadow_475_23005" result="effect2_innerShadow_475_23005"/>
</filter>
<filter id="filter7_ii_475_23005" x="-8.4952" y="221.308" width="17.134" height="17.4997" filterUnits="userSpaceOnUse" color-interpolation-filters="sRGB">
<feFlood flood-opacity="0" result="BackgroundImageFix"/>
<feBlend mode="normal" in="SourceGraphic" in2="BackgroundImageFix" result="shape"/>
<feColorMatrix in="SourceAlpha" type="matrix" values="0 0 0 0 0 0 0 0 0 0 0 0 0 0 0 0 0 0 127 0" result="hardAlpha"/>
<feOffset dx="-0.487628" dy="-0.487628"/>
<feGaussianBlur stdDeviation="0.609535"/>
<feComposite in2="hardAlpha" operator="arithmetic" k2="-1" k3="1"/>
<feColorMatrix type="matrix" values="0 0 0 0 1 0 0 0 0 0.825455 0 0 0 0 0.727273 0 0 0 0.25 0"/>
<feBlend mode="normal" in2="shape" result="effect1_innerShadow_475_23005"/>
<feColorMatrix in="SourceAlpha" type="matrix" values="0 0 0 0 0 0 0 0 0 0 0 0 0 0 0 0 0 0 127 0" result="hardAlpha"/>
<feOffset dx="0.121907" dy="0.487628"/>
<feGaussianBlur stdDeviation="0.487628"/>
<feComposite in2="hardAlpha" operator="arithmetic" k2="-1" k3="1"/>
<feColorMatrix type="matrix" values="0 0 0 0 1 0 0 0 0 0.946469 0 0 0 0 0.918939 0 0 0 1 0"/>
<feBlend mode="normal" in2="effect1_innerShadow_475_23005" result="effect2_innerShadow_475_23005"/>
</filter>
<filter id="filter8_i_475_23005" x="39.0196" y="213.923" width="11.9598" height="28.9713" filterUnits="userSpaceOnUse" color-interpolation-filters="sRGB">
<feFlood flood-opacity="0" result="BackgroundImageFix"/>
<feBlend mode="normal" in="SourceGraphic" in2="BackgroundImageFix" result="shape"/>
<feColorMatrix in="SourceAlpha" type="matrix" values="0 0 0 0 0 0 0 0 0 0 0 0 0 0 0 0 0 0 127 0" result="hardAlpha"/>
<feOffset dx="0.487628" dy="0.975256"/>
<feGaussianBlur stdDeviation="0.487628"/>
<feComposite in2="hardAlpha" operator="arithmetic" k2="-1" k3="1"/>
<feColorMatrix type="matrix" values="0 0 0 0 1 0 0 0 0 0.700257 0 0 0 0 0.635606 0 0 0 1 0"/>
<feBlend mode="normal" in2="shape" result="effect1_innerShadow_475_23005"/>
</filter>
<filter id="filter9_ii_475_23005" x="40.1757" y="208.028" width="14.1073" height="18.6439" filterUnits="userSpaceOnUse" color-interpolation-filters="sRGB">
<feFlood flood-opacity="0" result="BackgroundImageFix"/>
<feBlend mode="normal" in="SourceGraphic" in2="BackgroundImageFix" result="shape"/>
<feColorMatrix in="SourceAlpha" type="matrix" values="0 0 0 0 0 0 0 0 0 0 0 0 0 0 0 0 0 0 127 0" result="hardAlpha"/>
<feOffset dy="0.975256"/>
<feGaussianBlur stdDeviation="0.243814"/>
<feComposite in2="hardAlpha" operator="arithmetic" k2="-1" k3="1"/>
<feColorMatrix type="matrix" values="0 0 0 0 1 0 0 0 0 0.137499 0 0 0 0 0.239285 0 0 0 0.25 0"/>
<feBlend mode="normal" in2="shape" result="effect1_innerShadow_475_23005"/>
<feColorMatrix in="SourceAlpha" type="matrix" values="0 0 0 0 0 0 0 0 0 0 0 0 0 0 0 0 0 0 127 0" result="hardAlpha"/>
<feOffset dx="0.975256" dy="0.487628"/>
<feGaussianBlur stdDeviation="0.975256"/>
<feComposite in2="hardAlpha" operator="arithmetic" k2="-1" k3="1"/>
<feColorMatrix type="matrix" values="0 0 0 0 1 0 0 0 0 1 0 0 0 0 1 0 0 0 0.5 0"/>
<feBlend mode="normal" in2="effect1_innerShadow_475_23005" result="effect2_innerShadow_475_23005"/>
</filter>
<filter id="filter10_ii_475_23005" x="68.421" y="557.329" width="73.3921" height="49.8287" filterUnits="userSpaceOnUse" color-interpolation-filters="sRGB">
<feFlood flood-opacity="0" result="BackgroundImageFix"/>
<feBlend mode="normal" in="SourceGraphic" in2="BackgroundImageFix" result="shape"/>
<feColorMatrix in="SourceAlpha" type="matrix" values="0 0 0 0 0 0 0 0 0 0 0 0 0 0 0 0 0 0 127 0" result="hardAlpha"/>
<feOffset dy="3.15793"/>
<feGaussianBlur stdDeviation="7.89483"/>
<feComposite in2="hardAlpha" operator="arithmetic" k2="-1" k3="1"/>
<feColorMatrix type="matrix" values="0 0 0 0 1 0 0 0 0 0.26856 0 0 0 0 0.350976 0 0 0 0.5 0"/>
<feBlend mode="normal" in2="shape" result="effect1_innerShadow_475_23005"/>
<feColorMatrix in="SourceAlpha" type="matrix" values="0 0 0 0 0 0 0 0 0 0 0 0 0 0 0 0 0 0 127 0" result="hardAlpha"/>
<feOffset dx="-1.57897" dy="-1.57897"/>
<feGaussianBlur stdDeviation="1.57897"/>
<feComposite in2="hardAlpha" operator="arithmetic" k2="-1" k3="1"/>
<feColorMatrix type="matrix" values="0 0 0 0 1 0 0 0 0 0.721569 0 0 0 0 0.752941 0 0 0 1 0"/>
<feBlend mode="normal" in2="effect1_innerShadow_475_23005" result="effect2_innerShadow_475_23005"/>
</filter>
<filter id="filter11_i_475_23005" x="68.421" y="542.299" width="73.3918" height="48.6747" filterUnits="userSpaceOnUse" color-interpolation-filters="sRGB">
<feFlood flood-opacity="0" result="BackgroundImageFix"/>
<feBlend mode="normal" in="SourceGraphic" in2="BackgroundImageFix" result="shape"/>
<feColorMatrix in="SourceAlpha" type="matrix" values="0 0 0 0 0 0 0 0 0 0 0 0 0 0 0 0 0 0 127 0" result="hardAlpha"/>
<feOffset dx="-1.57897" dy="-1.57897"/>
<feGaussianBlur stdDeviation="1.57897"/>
<feComposite in2="hardAlpha" operator="arithmetic" k2="-1" k3="1"/>
<feColorMatrix type="matrix" values="0 0 0 0 1 0 0 0 0 0.858141 0 0 0 0 0.476894 0 0 0 1 0"/>
<feBlend mode="normal" in2="shape" result="effect1_innerShadow_475_23005"/>
</filter>
<filter id="filter12_i_475_23005" x="68.421" y="542.716" width="73.3918" height="29.9701" filterUnits="userSpaceOnUse" color-interpolation-filters="sRGB">
<feFlood flood-opacity="0" result="BackgroundImageFix"/>
<feBlend mode="normal" in="SourceGraphic" in2="BackgroundImageFix" result="shape"/>
<feColorMatrix in="SourceAlpha" type="matrix" values="0 0 0 0 0 0 0 0 0 0 0 0 0 0 0 0 0 0 127 0" result="hardAlpha"/>
<feOffset dx="-1.57897" dy="-1.57897"/>
<feGaussianBlur stdDeviation="1.57897"/>
<feComposite in2="hardAlpha" operator="arithmetic" k2="-1" k3="1"/>
<feColorMatrix type="matrix" values="0 0 0 0 1 0 0 0 0 0.933612 0 0 0 0 0.747727 0 0 0 1 0"/>
<feBlend mode="normal" in2="shape" result="effect1_innerShadow_475_23005"/>
</filter>
<filter id="filter13_i_475_23005" x="101.033" y="528.35" width="9.04872" height="38.2292" filterUnits="userSpaceOnUse" color-interpolation-filters="sRGB">
<feFlood flood-opacity="0" result="BackgroundImageFix"/>
<feBlend mode="normal" in="SourceGraphic" in2="BackgroundImageFix" result="shape"/>
<feColorMatrix in="SourceAlpha" type="matrix" values="0 0 0 0 0 0 0 0 0 0 0 0 0 0 0 0 0 0 127 0" result="hardAlpha"/>
<feOffset dx="-2.36845" dy="3.15793"/>
<feGaussianBlur stdDeviation="1.57897"/>
<feComposite in2="hardAlpha" operator="arithmetic" k2="-1" k3="1"/>
<feColorMatrix type="matrix" values="0 0 0 0 1 0 0 0 0 0.747727 0 0 0 0 0.780921 0 0 0 1 0"/>
<feBlend mode="normal" in2="shape" result="effect1_innerShadow_475_23005"/>
</filter>
<filter id="filter14_ii_475_23005" x="98.3918" y="520" width="19.8586" height="24.9598" filterUnits="userSpaceOnUse" color-interpolation-filters="sRGB">
<feFlood flood-opacity="0" result="BackgroundImageFix"/>
<feBlend mode="normal" in="SourceGraphic" in2="BackgroundImageFix" result="shape"/>
<feColorMatrix in="SourceAlpha" type="matrix" values="0 0 0 0 0 0 0 0 0 0 0 0 0 0 0 0 0 0 127 0" result="hardAlpha"/>
<feOffset dy="3.15793"/>
<feGaussianBlur stdDeviation="0.789483"/>
<feComposite in2="hardAlpha" operator="arithmetic" k2="-1" k3="1"/>
<feColorMatrix type="matrix" values="0 0 0 0 1 0 0 0 0 0.137499 0 0 0 0 0.239285 0 0 0 0.25 0"/>
<feBlend mode="normal" in2="shape" result="effect1_innerShadow_475_23005"/>
<feColorMatrix in="SourceAlpha" type="matrix" values="0 0 0 0 0 0 0 0 0 0 0 0 0 0 0 0 0 0 127 0" result="hardAlpha"/>
<feOffset dx="3.15793" dy="1.57897"/>
<feGaussianBlur stdDeviation="3.15793"/>
<feComposite in2="hardAlpha" operator="arithmetic" k2="-1" k3="1"/>
<feColorMatrix type="matrix" values="0 0 0 0 1 0 0 0 0 1 0 0 0 0 1 0 0 0 0.5 0"/>
<feBlend mode="normal" in2="effect1_innerShadow_475_23005" result="effect2_innerShadow_475_23005"/>
</filter>
<filter id="filter15_i_475_23005" x="87.7226" y="535.001" width="5.84143" height="24.6792" filterUnits="userSpaceOnUse" color-interpolation-filters="sRGB">
<feFlood flood-opacity="0" result="BackgroundImageFix"/>
<feBlend mode="normal" in="SourceGraphic" in2="BackgroundImageFix" result="shape"/>
<feColorMatrix in="SourceAlpha" type="matrix" values="0 0 0 0 0 0 0 0 0 0 0 0 0 0 0 0 0 0 127 0" result="hardAlpha"/>
<feOffset dx="-1.52896" dy="2.03862"/>
<feGaussianBlur stdDeviation="1.01931"/>
<feComposite in2="hardAlpha" operator="arithmetic" k2="-1" k3="1"/>
<feColorMatrix type="matrix" values="0 0 0 0 1 0 0 0 0 0.747727 0 0 0 0 0.780921 0 0 0 1 0"/>
<feBlend mode="normal" in2="shape" result="effect1_innerShadow_475_23005"/>
</filter>
<filter id="filter16_ii_475_23005" x="86.0177" y="529.611" width="12.8198" height="16.1131" filterUnits="userSpaceOnUse" color-interpolation-filters="sRGB">
<feFlood flood-opacity="0" result="BackgroundImageFix"/>
<feBlend mode="normal" in="SourceGraphic" in2="BackgroundImageFix" result="shape"/>
<feColorMatrix in="SourceAlpha" type="matrix" values="0 0 0 0 0 0 0 0 0 0 0 0 0 0 0 0 0 0 127 0" result="hardAlpha"/>
<feOffset dy="2.03862"/>
<feGaussianBlur stdDeviation="0.509654"/>
<feComposite in2="hardAlpha" operator="arithmetic" k2="-1" k3="1"/>
<feColorMatrix type="matrix" values="0 0 0 0 1 0 0 0 0 0.137499 0 0 0 0 0.239285 0 0 0 0.25 0"/>
<feBlend mode="normal" in2="shape" result="effect1_innerShadow_475_23005"/>
<feColorMatrix in="SourceAlpha" type="matrix" values="0 0 0 0 0 0 0 0 0 0 0 0 0 0 0 0 0 0 127 0" result="hardAlpha"/>
<feOffset dx="2.03862" dy="1.01931"/>
<feGaussianBlur stdDeviation="2.03862"/>
<feComposite in2="hardAlpha" operator="arithmetic" k2="-1" k3="1"/>
<feColorMatrix type="matrix" values="0 0 0 0 1 0 0 0 0 1 0 0 0 0 1 0 0 0 0.5 0"/>
<feBlend mode="normal" in2="effect1_innerShadow_475_23005" result="effect2_innerShadow_475_23005"/>
</filter>
<filter id="filter17_i_475_23005" x="118.716" y="535.001" width="5.84143" height="24.6792" filterUnits="userSpaceOnUse" color-interpolation-filters="sRGB">
<feFlood flood-opacity="0" result="BackgroundImageFix"/>
<feBlend mode="normal" in="SourceGraphic" in2="BackgroundImageFix" result="shape"/>
<feColorMatrix in="SourceAlpha" type="matrix" values="0 0 0 0 0 0 0 0 0 0 0 0 0 0 0 0 0 0 127 0" result="hardAlpha"/>
<feOffset dx="-1.52896" dy="2.03862"/>
<feGaussianBlur stdDeviation="1.01931"/>
<feComposite in2="hardAlpha" operator="arithmetic" k2="-1" k3="1"/>
<feColorMatrix type="matrix" values="0 0 0 0 1 0 0 0 0 0.747727 0 0 0 0 0.780921 0 0 0 1 0"/>
<feBlend mode="normal" in2="shape" result="effect1_innerShadow_475_23005"/>
</filter>
<filter id="filter18_ii_475_23005" x="117.011" y="529.611" width="12.8198" height="16.1131" filterUnits="userSpaceOnUse" color-interpolation-filters="sRGB">
<feFlood flood-opacity="0" result="BackgroundImageFix"/>
<feBlend mode="normal" in="SourceGraphic" in2="BackgroundImageFix" result="shape"/>
<feColorMatrix in="SourceAlpha" type="matrix" values="0 0 0 0 0 0 0 0 0 0 0 0 0 0 0 0 0 0 127 0" result="hardAlpha"/>
<feOffset dy="2.03862"/>
<feGaussianBlur stdDeviation="0.509654"/>
<feComposite in2="hardAlpha" operator="arithmetic" k2="-1" k3="1"/>
<feColorMatrix type="matrix" values="0 0 0 0 1 0 0 0 0 0.137499 0 0 0 0 0.239285 0 0 0 0.25 0"/>
<feBlend mode="normal" in2="shape" result="effect1_innerShadow_475_23005"/>
<feColorMatrix in="SourceAlpha" type="matrix" values="0 0 0 0 0 0 0 0 0 0 0 0 0 0 0 0 0 0 127 0" result="hardAlpha"/>
<feOffset dx="2.03862" dy="1.01931"/>
<feGaussianBlur stdDeviation="2.03862"/>
<feComposite in2="hardAlpha" operator="arithmetic" k2="-1" k3="1"/>
<feColorMatrix type="matrix" values="0 0 0 0 1 0 0 0 0 1 0 0 0 0 1 0 0 0 0.5 0"/>
<feBlend mode="normal" in2="effect1_innerShadow_475_23005" result="effect2_innerShadow_475_23005"/>
</filter>
<filter id="filter19_ii_475_23005" x="268.004" y="617.895" width="90.449" height="94.7117" filterUnits="userSpaceOnUse" color-interpolation-filters="sRGB">
<feFlood flood-opacity="0" result="BackgroundImageFix"/>
<feBlend mode="normal" in="SourceGraphic" in2="BackgroundImageFix" result="shape"/>
<feColorMatrix in="SourceAlpha" type="matrix" values="0 0 0 0 0 0 0 0 0 0 0 0 0 0 0 0 0 0 127 0" result="hardAlpha"/>
<feOffset dy="1.06109"/>
<feGaussianBlur stdDeviation="0.265272"/>
<feComposite in2="hardAlpha" operator="arithmetic" k2="-1" k3="1"/>
<feColorMatrix type="matrix" values="0 0 0 0 1 0 0 0 0 0.137499 0 0 0 0 0.239285 0 0 0 0.25 0"/>
<feBlend mode="normal" in2="shape" result="effect1_innerShadow_475_23005"/>
<feColorMatrix in="SourceAlpha" type="matrix" values="0 0 0 0 0 0 0 0 0 0 0 0 0 0 0 0 0 0 127 0" result="hardAlpha"/>
<feOffset dx="1.06109" dy="0.530545"/>
<feGaussianBlur stdDeviation="1.06109"/>
<feComposite in2="hardAlpha" operator="arithmetic" k2="-1" k3="1"/>
<feColorMatrix type="matrix" values="0 0 0 0 1 0 0 0 0 1 0 0 0 0 1 0 0 0 0.5 0"/>
<feBlend mode="normal" in2="effect1_innerShadow_475_23005" result="effect2_innerShadow_475_23005"/>
</filter>
<filter id="filter20_ii_475_23005" x="271.853" y="639.897" width="82.3559" height="70.057" filterUnits="userSpaceOnUse" color-interpolation-filters="sRGB">
<feFlood flood-opacity="0" result="BackgroundImageFix"/>
<feBlend mode="normal" in="SourceGraphic" in2="BackgroundImageFix" result="shape"/>
<feColorMatrix in="SourceAlpha" type="matrix" values="0 0 0 0 0 0 0 0 0 0 0 0 0 0 0 0 0 0 127 0" result="hardAlpha"/>
<feOffset dy="1.06109"/>
<feGaussianBlur stdDeviation="2.65272"/>
<feComposite in2="hardAlpha" operator="arithmetic" k2="-1" k3="1"/>
<feColorMatrix type="matrix" values="0 0 0 0 0.188235 0 0 0 0 0.541176 0 0 0 0 0.976471 0 0 0 0.5 0"/>
<feBlend mode="normal" in2="shape" result="effect1_innerShadow_475_23005"/>
<feColorMatrix in="SourceAlpha" type="matrix" values="0 0 0 0 0 0 0 0 0 0 0 0 0 0 0 0 0 0 127 0" result="hardAlpha"/>
<feOffset dx="-0.530545" dy="-0.530545"/>
<feGaussianBlur stdDeviation="0.530545"/>
<feComposite in2="hardAlpha" operator="arithmetic" k2="-1" k3="1"/>
<feColorMatrix type="matrix" values="0 0 0 0 0.211765 0 0 0 0 0.560784 0 0 0 0 0.992157 0 0 0 1 0"/>
<feBlend mode="normal" in2="effect1_innerShadow_475_23005" result="effect2_innerShadow_475_23005"/>
</filter>
<filter id="filter21_i_475_23005" x="270.657" y="634.969" width="67.5942" height="44.9759" filterUnits="userSpaceOnUse" color-interpolation-filters="sRGB">
<feFlood flood-opacity="0" result="BackgroundImageFix"/>
<feBlend mode="normal" in="SourceGraphic" in2="BackgroundImageFix" result="shape"/>
<feColorMatrix in="SourceAlpha" type="matrix" values="0 0 0 0 0 0 0 0 0 0 0 0 0 0 0 0 0 0 127 0" result="hardAlpha"/>
<feOffset dx="-0.530545" dy="-0.530545"/>
<feGaussianBlur stdDeviation="0.530545"/>
<feComposite in2="hardAlpha" operator="arithmetic" k2="-1" k3="1"/>
<feColorMatrix type="matrix" values="0 0 0 0 0.54902 0 0 0 0 0.8 0 0 0 0 1 0 0 0 1 0"/>
<feBlend mode="normal" in2="shape" result="effect1_innerShadow_475_23005"/>
</filter>
<filter id="filter22_i_475_23005" x="286.246" y="626.104" width="23.8819" height="36.0342" filterUnits="userSpaceOnUse" color-interpolation-filters="sRGB">
<feFlood flood-opacity="0" result="BackgroundImageFix"/>
<feBlend mode="normal" in="SourceGraphic" in2="BackgroundImageFix" result="shape"/>
<feColorMatrix in="SourceAlpha" type="matrix" values="0 0 0 0 0 0 0 0 0 0 0 0 0 0 0 0 0 0 127 0" result="hardAlpha"/>
<feOffset dx="0.530545" dy="1.06109"/>
<feGaussianBlur stdDeviation="0.530545"/>
<feComposite in2="hardAlpha" operator="arithmetic" k2="-1" k3="1"/>
<feColorMatrix type="matrix" values="0 0 0 0 0.215686 0 0 0 0 0.572549 0 0 0 0 0.972549 0 0 0 1 0"/>
<feBlend mode="normal" in2="shape" result="effect1_innerShadow_475_23005"/>
</filter>
<filter id="filter23_ii_475_23005" x="283.829" y="619.977" width="18.3946" height="22.9422" filterUnits="userSpaceOnUse" color-interpolation-filters="sRGB">
<feFlood flood-opacity="0" result="BackgroundImageFix"/>
<feBlend mode="normal" in="SourceGraphic" in2="BackgroundImageFix" result="shape"/>
<feColorMatrix in="SourceAlpha" type="matrix" values="0 0 0 0 0 0 0 0 0 0 0 0 0 0 0 0 0 0 127 0" result="hardAlpha"/>
<feOffset dy="1.06109"/>
<feGaussianBlur stdDeviation="0.265272"/>
<feComposite in2="hardAlpha" operator="arithmetic" k2="-1" k3="1"/>
<feColorMatrix type="matrix" values="0 0 0 0 1 0 0 0 0 0.137499 0 0 0 0 0.239285 0 0 0 0.25 0"/>
<feBlend mode="normal" in2="shape" result="effect1_innerShadow_475_23005"/>
<feColorMatrix in="SourceAlpha" type="matrix" values="0 0 0 0 0 0 0 0 0 0 0 0 0 0 0 0 0 0 127 0" result="hardAlpha"/>
<feOffset dx="1.06109" dy="0.530545"/>
<feGaussianBlur stdDeviation="1.06109"/>
<feComposite in2="hardAlpha" operator="arithmetic" k2="-1" k3="1"/>
<feColorMatrix type="matrix" values="0 0 0 0 1 0 0 0 0 1 0 0 0 0 1 0 0 0 0.5 0"/>
<feBlend mode="normal" in2="effect1_innerShadow_475_23005" result="effect2_innerShadow_475_23005"/>
</filter>
<clipPath id="clip0_475_23005">
<rect width="390" height="844" fill="white"/>
</clipPath>
</defs>
</svg>
