<svg width="22" height="21" viewBox="0 0 22 21" fill="none" xmlns="http://www.w3.org/2000/svg">
<path fill-rule="evenodd" clip-rule="evenodd" d="M10.4909 0.31589C10.8247 0.228037 11.1755 0.228037 11.5092 0.31589C11.8964 0.417821 12.225 0.666532 12.4871 0.864902C12.512 0.883781 12.5363 0.902204 12.5601 0.92L13.167 1.37517C13.2434 1.4319 13.3207 1.49009 13.3994 1.5493C13.4382 1.57848 13.4773 1.60791 13.5168 1.63752C13.5179 1.63835 13.519 1.63917 13.5201 1.64L19.6001 6.2C19.6 6.19995 19.6001 6.20005 19.6001 6.2L21.6001 7.7C22.0419 8.03137 22.1314 8.65817 21.8001 9.1C21.4687 9.54183 20.8419 9.63137 20.4001 9.3L20.0001 9V16.8386C20.0001 17.3657 20.0001 17.8205 19.9695 18.195C19.9372 18.5904 19.8659 18.9836 19.6731 19.362C19.3855 19.9265 18.9265 20.3854 18.362 20.673C17.9837 20.8658 17.5904 20.9371 17.1951 20.9694C16.8205 21 16.3658 21 15.8386 21H6.1615C5.63436 21 5.1796 21 4.80503 20.9694C4.40969 20.9371 4.01647 20.8658 3.63809 20.673C3.07361 20.3854 2.61466 19.9265 2.32704 19.362C2.13425 18.9836 2.06293 18.5904 2.03063 18.195C2.00003 17.8205 2.00004 17.3657 2.00006 16.8385L2.00006 9L1.60006 9.3C1.15823 9.63137 0.53143 9.54183 0.200059 9.1C-0.131312 8.65817 -0.0417688 8.03137 0.400059 7.7L8.48006 1.64C8.48173 1.63875 8.4834 1.6375 8.48506 1.63625C8.52397 1.60706 8.56251 1.57806 8.60074 1.5493C8.67941 1.49011 8.75675 1.43192 8.83313 1.3752L9.44006 0.92C9.46379 0.902203 9.48813 0.88378 9.51307 0.864902C9.77514 0.666532 10.1037 0.417821 10.4909 0.31589ZM4.00006 7.5V16.8C4.00006 17.3766 4.00084 17.7488 4.02399 18.0322C4.04619 18.3038 4.08386 18.4045 4.10906 18.454C4.20493 18.6422 4.35791 18.7951 4.54607 18.891C4.59552 18.9162 4.69624 18.9539 4.9679 18.9761C5.25124 18.9992 5.62351 19 6.20006 19H7.00006L7.00006 12.5681C7.00003 12.3157 7 12.0699 7.01701 11.8618C7.03568 11.6332 7.07975 11.3634 7.21805 11.092C7.4098 10.7157 7.71576 10.4097 8.09208 10.218C8.36351 10.0797 8.63324 10.0356 8.86183 10.0169C9.07 9.99994 9.31579 9.99997 9.56818 10H12.4319C12.6843 9.99997 12.9301 9.99994 13.1383 10.0169C13.3669 10.0356 13.6366 10.0797 13.908 10.218C14.2844 10.4097 14.5903 10.7157 14.7821 11.092C14.9204 11.3634 14.9644 11.6332 14.9831 11.8618C15.0001 12.0699 15.0001 12.3157 15.0001 12.5681L15.0001 19H15.8001C16.3766 19 16.7489 18.9992 17.0322 18.9761C17.3039 18.9539 17.4046 18.9162 17.4541 18.891C17.6422 18.7951 17.7952 18.6422 17.8911 18.454C17.9163 18.4045 17.9539 18.3038 17.9761 18.0322C17.9993 17.7488 18.0001 17.3766 18.0001 16.8V7.5L12.3201 3.24C11.5604 2.67022 11.3977 2.57061 11.2546 2.53295C11.0878 2.48902 10.9124 2.48902 10.7455 2.53295C10.6024 2.57061 10.4398 2.67022 9.68006 3.24L4.00006 7.5ZM13.0001 19V12.6C13.0001 12.3035 12.9993 12.1412 12.9898 12.0246C12.9894 12.02 12.989 12.0156 12.9886 12.0114C12.9845 12.0111 12.9801 12.0107 12.9754 12.0103C12.8588 12.0008 12.6966 12 12.4001 12H9.60006C9.30354 12 9.14128 12.0008 9.0247 12.0103C9.02005 12.0107 9.01566 12.0111 9.01151 12.0114C9.01113 12.0156 9.01075 12.02 9.01037 12.0246C9.00084 12.1412 9.00006 12.3035 9.00006 12.6V19H13.0001Z" fill="#CCD4DC"/>
</svg>
