<svg width="49" height="48" viewBox="0 0 49 48" fill="none" xmlns="http://www.w3.org/2000/svg">
<g filter="url(#filter0_ii_427_7324)">
<path fill-rule="evenodd" clip-rule="evenodd" d="M10.3623 11C8.15317 11 6.3623 12.7909 6.3623 15V18.5298C8.28724 19.2238 9.65878 21.0228 9.65878 23.1327C9.65878 25.2426 8.28724 27.0416 6.3623 27.7356V32C6.3623 34.2091 8.15316 36 10.3623 36H37.9684C40.1775 36 41.9684 34.2091 41.9684 32V27.9446C39.6557 27.493 37.914 25.5102 37.914 23.1326C37.914 20.7549 39.6557 18.7721 41.9684 18.3205V15C41.9684 12.7909 40.1775 11 37.9684 11H10.3623Z" fill="#F8ACFF"/>
</g>
<g filter="url(#filter1_d_427_7324)">
<circle cx="20.355" cy="19.7032" r="1.87165" fill="white"/>
<circle cx="27.2183" cy="26.566" r="1.87165" fill="white"/>
<rect x="26.7686" y="17.8179" width="1.87165" height="12.8365" rx="0.935824" transform="rotate(40.1999 26.7686 17.8179)" fill="white"/>
</g>
<defs>
<filter id="filter0_ii_427_7324" x="5.3623" y="10" width="38.6064" height="30" filterUnits="userSpaceOnUse" color-interpolation-filters="sRGB">
<feFlood flood-opacity="0" result="BackgroundImageFix"/>
<feBlend mode="normal" in="SourceGraphic" in2="BackgroundImageFix" result="shape"/>
<feColorMatrix in="SourceAlpha" type="matrix" values="0 0 0 0 0 0 0 0 0 0 0 0 0 0 0 0 0 0 127 0" result="hardAlpha"/>
<feOffset dx="2" dy="4"/>
<feGaussianBlur stdDeviation="4"/>
<feComposite in2="hardAlpha" operator="arithmetic" k2="-1" k3="1"/>
<feColorMatrix type="matrix" values="0 0 0 0 0.983324 0 0 0 0 0.802273 0 0 0 0 1 0 0 0 1 0"/>
<feBlend mode="normal" in2="shape" result="effect1_innerShadow_427_7324"/>
<feColorMatrix in="SourceAlpha" type="matrix" values="0 0 0 0 0 0 0 0 0 0 0 0 0 0 0 0 0 0 127 0" result="hardAlpha"/>
<feOffset dx="-1" dy="-1"/>
<feGaussianBlur stdDeviation="2"/>
<feComposite in2="hardAlpha" operator="arithmetic" k2="-1" k3="1"/>
<feColorMatrix type="matrix" values="0 0 0 0 0.940101 0 0 0 0 0.289773 0 0 0 0 1 0 0 0 0.6 0"/>
<feBlend mode="normal" in2="effect1_innerShadow_427_7324" result="effect2_innerShadow_427_7324"/>
</filter>
<filter id="filter1_d_427_7324" x="14.4834" y="17.8315" width="18.6064" height="18.6157" filterUnits="userSpaceOnUse" color-interpolation-filters="sRGB">
<feFlood flood-opacity="0" result="BackgroundImageFix"/>
<feColorMatrix in="SourceAlpha" type="matrix" values="0 0 0 0 0 0 0 0 0 0 0 0 0 0 0 0 0 0 127 0" result="hardAlpha"/>
<feOffset dy="4"/>
<feGaussianBlur stdDeviation="2"/>
<feComposite in2="hardAlpha" operator="out"/>
<feColorMatrix type="matrix" values="0 0 0 0 0.646431 0 0 0 0 0.646431 0 0 0 0 0.646431 0 0 0 0.25 0"/>
<feBlend mode="normal" in2="BackgroundImageFix" result="effect1_dropShadow_427_7324"/>
<feBlend mode="normal" in="SourceGraphic" in2="effect1_dropShadow_427_7324" result="shape"/>
</filter>
</defs>
</svg>
