<svg width="21" height="20" viewBox="0 0 21 20" fill="none" xmlns="http://www.w3.org/2000/svg">
<path fill-rule="evenodd" clip-rule="evenodd" d="M20.0999 10.2271C20.0999 9.518 20.0363 8.83619 19.9181 8.18164H10.4999V12.0498H15.8818C15.6499 13.2998 14.9454 14.3589 13.8863 15.068V17.5771H17.1181C19.009 15.8362 20.0999 13.2725 20.0999 10.2271Z" fill="#4285F4"/>
<path fill-rule="evenodd" clip-rule="evenodd" d="M10.5 19.9994C13.2 19.9994 15.4637 19.104 17.1182 17.5767L13.8864 15.0676C12.9909 15.6676 11.8455 16.0221 10.5 16.0221C7.89548 16.0221 5.69093 14.2631 4.90457 11.8994H1.56366V14.4903C3.20911 17.7585 6.59093 19.9994 10.5 19.9994Z" fill="#34A853"/>
<path fill-rule="evenodd" clip-rule="evenodd" d="M4.90455 11.9002C4.70455 11.3002 4.59091 10.6593 4.59091 10.0002C4.59091 9.3411 4.70455 8.70019 4.90455 8.10019V5.50928H1.56364C0.886364 6.85928 0.5 8.38655 0.5 10.0002C0.5 11.6138 0.886364 13.1411 1.56364 14.4911L4.90455 11.9002Z" fill="#FBBC05"/>
<path fill-rule="evenodd" clip-rule="evenodd" d="M10.5 3.97727C11.9682 3.97727 13.2864 4.48182 14.3228 5.47273L17.1909 2.60455C15.4591 0.990909 13.1955 0 10.5 0C6.59093 0 3.20911 2.24091 1.56366 5.50909L4.90457 8.1C5.69093 5.73636 7.89548 3.97727 10.5 3.97727Z" fill="#EA4335"/>
</svg>
