<svg width="18" height="18" viewBox="0 0 18 18" fill="none" xmlns="http://www.w3.org/2000/svg">
<path d="M14.8848 4.19633C14.8848 3.59811 14.3999 3.11507 13.8039 3.11507C13.2079 3.11507 12.7227 3.59811 12.7227 4.19633C12.7227 4.79235 13.2079 5.27539 13.8039 5.27539C14.3999 5.27539 14.8848 4.79235 14.8848 4.19633Z" fill="url(#paint0_linear_463_22734)"/>
<path d="M16.3249 12.6363C16.2849 13.5139 16.1381 13.9907 16.0163 14.3074C15.8526 14.7273 15.6573 15.0275 15.3406 15.3424C15.0275 15.6573 14.7273 15.8521 14.3074 16.014C13.9907 16.1377 13.5121 16.2849 12.6346 16.3267C11.6858 16.3685 11.4047 16.3774 8.99888 16.3774C6.59528 16.3774 6.31193 16.3685 5.3632 16.3267C4.48566 16.2849 4.0093 16.1377 3.69259 16.014C3.2705 15.8521 2.97251 15.6573 2.6576 15.3424C2.34046 15.0275 2.14521 14.7273 1.98375 14.3074C1.86186 13.9907 1.71288 13.5139 1.67505 12.6363C1.62881 11.6876 1.62034 11.4021 1.62034 9.00112C1.62034 6.59528 1.62881 6.31193 1.67505 5.3632C1.71288 4.48566 1.86186 4.0093 1.98375 3.68992C2.14521 3.2705 2.34046 2.97204 2.6576 2.65713C2.97251 2.34269 3.2705 2.14741 3.69259 1.98375C4.0093 1.85966 4.48566 1.71465 5.3632 1.67285C6.31193 1.63102 6.59528 1.62034 8.99888 1.62034C11.4047 1.62034 11.6858 1.63102 12.6346 1.67285C13.5121 1.71465 13.9907 1.85966 14.3074 1.98375C14.7273 2.14741 15.0275 2.34269 15.3406 2.65713C15.6573 2.97204 15.8526 3.2705 16.0163 3.68992C16.1381 4.0093 16.2849 4.48566 16.3249 5.3632C16.369 6.31193 16.3796 6.59528 16.3796 9.00112C16.3796 11.4021 16.369 11.6876 16.3249 12.6363ZM17.9453 5.28938C17.9013 4.33041 17.75 3.67524 17.5254 3.10461C17.2968 2.51259 16.9903 2.01087 16.4886 1.50916C15.9891 1.00967 15.4874 0.703207 14.8954 0.47193C14.3225 0.249525 13.6696 0.096508 12.7102 0.0547104C11.7508 0.00844193 11.4443 0 8.99888 0C6.55568 0 6.24701 0.00844193 5.28761 0.0547104C4.33041 0.096508 3.67791 0.249525 3.10237 0.47193C2.51259 0.703207 2.01087 1.00967 1.51139 1.50916C1.00967 2.01087 0.703205 2.51259 0.472361 3.10461C0.249958 3.67524 0.0987422 4.33041 0.0524735 5.28938C0.0106748 6.24878 0 6.55568 0 9.00112C0 11.4443 0.0106748 11.7508 0.0524735 12.7102C0.0987422 13.6674 0.249958 14.3221 0.472361 14.8954C0.703205 15.4852 1.00967 15.9891 1.51139 16.4886C2.01087 16.9881 2.51259 17.2968 3.10237 17.5276C3.67791 17.75 4.33041 17.9013 5.28761 17.9453C6.24701 17.9893 6.55568 18 8.99888 18C11.4443 18 11.7508 17.9893 12.7102 17.9453C13.6696 17.9013 14.3225 17.75 14.8954 17.5276C15.4874 17.2968 15.9891 16.9881 16.4886 16.4886C16.9903 15.9891 17.2968 15.4852 17.5254 14.8954C17.75 14.3221 17.9013 13.6674 17.9453 12.7102C17.9893 11.7508 18 11.4443 18 9.00112C18 6.55568 17.9893 6.24878 17.9453 5.28938Z" fill="url(#paint1_linear_463_22734)"/>
<path d="M8.99887 11.9985C7.34294 11.9985 5.99925 10.657 5.99925 9.00109C5.99925 7.34249 7.34294 5.99927 8.99887 5.99927C10.6553 5.99927 12.0007 7.34249 12.0007 9.00109C12.0007 10.657 10.6553 11.9985 8.99887 11.9985ZM8.99887 4.37669C6.44625 4.37669 4.37891 6.44848 4.37891 9.00109C4.37891 11.5515 6.44625 13.6211 8.99887 13.6211C11.5515 13.6211 13.6211 11.5515 13.6211 9.00109C13.6211 6.44848 11.5515 4.37669 8.99887 4.37669Z" fill="url(#paint2_linear_463_22734)"/>
<defs>
<linearGradient id="paint0_linear_463_22734" x1="0.162407" y1="17.8141" x2="16.5008" y2="1.47575" gradientUnits="userSpaceOnUse">
<stop stop-color="#FFD521"/>
<stop offset="0.05" stop-color="#FFD521"/>
<stop offset="0.501119" stop-color="#F50000"/>
<stop offset="0.95" stop-color="#B900B4"/>
<stop offset="0.950079" stop-color="#B900B4"/>
<stop offset="1" stop-color="#B900B4"/>
</linearGradient>
<linearGradient id="paint1_linear_463_22734" x1="0.162358" y1="17.8363" x2="16.5142" y2="1.48447" gradientUnits="userSpaceOnUse">
<stop stop-color="#FFD521"/>
<stop offset="0.05" stop-color="#FFD521"/>
<stop offset="0.501119" stop-color="#F50000"/>
<stop offset="0.95" stop-color="#B900B4"/>
<stop offset="0.950079" stop-color="#B900B4"/>
<stop offset="1" stop-color="#B900B4"/>
</linearGradient>
<linearGradient id="paint2_linear_463_22734" x1="0.166587" y1="17.8368" x2="16.5145" y2="1.48884" gradientUnits="userSpaceOnUse">
<stop stop-color="#FFD521"/>
<stop offset="0.05" stop-color="#FFD521"/>
<stop offset="0.501119" stop-color="#F50000"/>
<stop offset="0.95" stop-color="#B900B4"/>
<stop offset="0.950079" stop-color="#B900B4"/>
<stop offset="1" stop-color="#B900B4"/>
</linearGradient>
</defs>
</svg>
