<svg width="24" height="24" viewBox="0 0 24 24" fill="none" xmlns="http://www.w3.org/2000/svg">
<path fill-rule="evenodd" clip-rule="evenodd" d="M11.9929 3.71886C9.65298 1.67397 6.19252 1.25552 3.50521 3.55161C0.598423 6.03523 0.176093 10.218 2.47471 13.1759C3.34724 14.2987 5.05023 15.9854 6.68684 17.5302C8.34261 19.093 9.99457 20.5699 10.8092 21.2913L10.8247 21.3051C10.9013 21.373 10.9967 21.4575 11.0881 21.5263C11.1975 21.6087 11.3547 21.7111 11.5645 21.7737C11.8434 21.8569 12.1432 21.8569 12.4221 21.7737C12.6319 21.7111 12.789 21.6087 12.8984 21.5263C12.9898 21.4575 13.0852 21.373 13.1618 21.3051L13.1773 21.2913C13.992 20.5699 15.6439 19.093 17.2997 17.5302C18.9363 15.9854 20.6393 14.2987 21.5118 13.1759C23.8016 10.2294 23.4445 6.01433 20.4709 3.54284C17.7537 1.28441 14.3301 1.6732 11.9929 3.71886ZM11.2333 5.7877C9.52828 3.79433 6.818 3.35171 4.80441 5.07216C2.7011 6.86928 2.41807 9.84366 4.05392 11.9487C4.81701 12.9306 6.40681 14.5157 8.05966 16.0758C9.6027 17.5322 11.1462 18.9164 11.9933 19.6682C12.8403 18.9164 14.3838 17.5322 15.9269 16.0758C17.5797 14.5157 19.1695 12.9306 19.9326 11.9487C21.5773 9.83229 21.3152 6.84515 19.1925 5.08093C17.1256 3.363 14.4507 3.80314 12.7532 5.7877C12.5632 6.00981 12.2856 6.13769 11.9933 6.13769C11.701 6.13769 11.4233 6.00981 11.2333 5.7877Z" fill="#FF94A1"/>
</svg>
