<svg width="24" height="24" viewBox="0 0 24 24" fill="none" xmlns="http://www.w3.org/2000/svg">
<path fill-rule="evenodd" clip-rule="evenodd" d="M3.50521 3.54978C6.19252 1.25369 9.65298 1.67214 11.9929 3.71703C14.3301 1.67136 17.7537 1.28258 20.4709 3.54101C23.4445 6.0125 23.8016 10.2276 21.5118 13.1741C20.6393 14.2968 18.9363 15.9836 17.2997 17.5284C15.6439 19.0912 13.992 20.568 13.1773 21.2895L13.1618 21.3032C13.0852 21.3711 12.9898 21.4557 12.8984 21.5245C12.789 21.6069 12.6319 21.7092 12.4221 21.7718C12.1432 21.855 11.8434 21.855 11.5645 21.7718C11.3547 21.7092 11.1975 21.6069 11.0881 21.5245C10.9967 21.4557 10.9013 21.3711 10.8247 21.3032L10.8092 21.2895C9.99457 20.568 8.34261 19.0912 6.68684 17.5284C5.05023 15.9836 3.34724 14.2968 2.47471 13.1741C0.176093 10.2162 0.598423 6.0334 3.50521 3.54978Z" fill="#F8576A"/>
</svg>
