<svg width="16" height="17" viewBox="0 0 16 17" fill="none" xmlns="http://www.w3.org/2000/svg">
<path fill-rule="evenodd" clip-rule="evenodd" d="M7.33301 3.16659C4.75568 3.16659 2.66634 5.25592 2.66634 7.83325C2.66634 10.4106 4.75568 12.4999 7.33301 12.4999C8.5903 12.4999 9.73147 12.0027 10.5706 11.1942C10.5881 11.1714 10.6074 11.1494 10.6283 11.1285C10.6492 11.1076 10.6711 11.0884 10.6939 11.0708C11.5025 10.2317 11.9997 9.09055 11.9997 7.83325C11.9997 5.25592 9.91034 3.16659 7.33301 3.16659ZM12.0209 11.5784C12.842 10.5519 13.333 9.24993 13.333 7.83325C13.333 4.51954 10.6467 1.83325 7.33301 1.83325C4.0193 1.83325 1.33301 4.51954 1.33301 7.83325C1.33301 11.147 4.0193 13.8333 7.33301 13.8333C8.74968 13.8333 10.0517 13.3423 11.0781 12.5212L13.5283 14.9713C13.7886 15.2317 14.2107 15.2317 14.4711 14.9713C14.7314 14.711 14.7314 14.2889 14.4711 14.0285L12.0209 11.5784Z" fill="#85929F"/>
</svg>
