<svg width="20" height="20" viewBox="0 0 20 20" fill="none" xmlns="http://www.w3.org/2000/svg">
<g clip-path="url(#clip0_429_3729)">
<ellipse opacity="0.4" cx="10.8333" cy="10.0001" rx="8.33333" ry="8.33333" fill="#85929F"/>
<path fill-rule="evenodd" clip-rule="evenodd" d="M9.99967 2.49992C5.85754 2.49992 2.49967 5.85778 2.49967 9.99992C2.49967 14.1421 5.85754 17.4999 9.99967 17.4999C14.1418 17.4999 17.4997 14.1421 17.4997 9.99992C17.4997 5.85778 14.1418 2.49992 9.99967 2.49992ZM0.833008 9.99992C0.833008 4.93731 4.93706 0.833252 9.99967 0.833252C15.0623 0.833252 19.1663 4.93731 19.1663 9.99992C19.1663 15.0625 15.0623 19.1666 9.99967 19.1666C4.93706 19.1666 0.833008 15.0625 0.833008 9.99992ZM6.91042 6.91066C7.23586 6.58523 7.76349 6.58523 8.08893 6.91066L9.99967 8.82141L11.9104 6.91066C12.2359 6.58523 12.7635 6.58523 13.0889 6.91066C13.4144 7.2361 13.4144 7.76374 13.0889 8.08917L11.1782 9.99992L13.0889 11.9107C13.4144 12.2361 13.4144 12.7637 13.0889 13.0892C12.7635 13.4146 12.2359 13.4146 11.9104 13.0892L9.99967 11.1784L8.08893 13.0892C7.76349 13.4146 7.23586 13.4146 6.91042 13.0892C6.58498 12.7637 6.58498 12.2361 6.91042 11.9107L8.82116 9.99992L6.91042 8.08917C6.58498 7.76374 6.58498 7.2361 6.91042 6.91066Z" fill="white"/>
</g>
<defs>
<clipPath id="clip0_429_3729">
<rect width="20" height="20" fill="white"/>
</clipPath>
</defs>
</svg>
