<svg width="140" height="140" viewBox="0 0 140 140" fill="none" xmlns="http://www.w3.org/2000/svg">
<path d="M22 125.918V105.706H25.8876V114.326H30.3936L38.3455 105.706H43.1461L33.81 115.812L43.1461 125.918H38.3455L30.5114 117.447H25.8876V125.918H22Z" fill="#18181C"/>
<path d="M46.2212 118.725C46.3587 120.112 46.8495 121.222 47.6938 122.054C48.7148 123.045 50.4426 123.541 52.8772 123.541C54.9388 123.541 56.3721 123.283 57.1771 122.768C57.9821 122.252 58.5123 121.529 58.7675 120.598H62.6256C62.233 122.441 61.2709 123.887 59.7394 124.938C58.2276 125.968 55.9402 126.483 52.8772 126.483C50.3641 126.483 48.3417 126.136 46.8103 125.443C45.2788 124.729 44.1694 123.729 43.4823 122.441C42.7951 121.153 42.4515 119.627 42.4515 117.863C42.4515 116.02 42.7951 114.455 43.4823 113.167C44.1694 111.879 45.269 110.898 46.7808 110.224C48.2926 109.55 50.2659 109.213 52.7005 109.213C55.3119 109.213 57.2557 109.57 58.5319 110.284C59.8278 110.977 60.8095 111.968 61.477 113.256C62.1642 114.524 62.5078 116.05 62.5078 117.833V118.725H46.2212ZM58.7086 116.704C58.5712 115.416 58.1687 114.385 57.5011 113.613C56.6568 112.622 55.0566 112.126 52.7005 112.126C50.3444 112.126 48.6657 112.632 47.6643 113.642C46.8986 114.415 46.4274 115.436 46.2507 116.704H58.7086Z" fill="#18181C"/>
<path d="M63.0529 112.602V109.778H76.8951V112.602L66.8521 123.095H77.3368V125.918H62.7584V123.095L72.8308 112.602H63.0529Z" fill="#18181C"/>
<path d="M78.0685 112.602V109.778H91.9107V112.602L81.8678 123.095H92.3524V125.918H77.774V123.095L87.8464 112.602H78.0685Z" fill="#18181C"/>
<path d="M93.2608 125.918V104.517H96.9423V125.918H93.2608Z" fill="#18181C"/>
<path d="M101.596 118.725C101.733 120.112 102.224 121.222 103.068 122.054C104.089 123.045 105.817 123.541 108.252 123.541C110.313 123.541 111.746 123.283 112.551 122.768C113.356 122.252 113.887 121.529 114.142 120.598H118C117.607 122.441 116.645 123.887 115.114 124.938C113.602 125.968 111.315 126.483 108.252 126.483C105.738 126.483 103.716 126.136 102.185 125.443C100.653 124.729 99.5438 123.729 98.8566 122.441C98.1694 121.153 97.8258 119.627 97.8258 117.863C97.8258 116.02 98.1694 114.455 98.8566 113.167C99.5438 111.879 100.643 110.898 102.155 110.224C103.667 109.55 105.64 109.213 108.075 109.213C110.686 109.213 112.63 109.57 113.906 110.284C115.202 110.977 116.184 111.968 116.851 113.256C117.539 114.524 117.882 116.05 117.882 117.833V118.725H101.596ZM114.083 116.704C113.946 115.416 113.543 114.385 112.875 113.613C112.031 112.622 110.431 112.126 108.075 112.126C105.719 112.126 104.04 112.632 103.039 113.642C102.273 114.415 101.802 115.436 101.625 116.704H114.083Z" fill="#18181C"/>
<g filter="url(#filter0_i_463_22025)">
<path fill-rule="evenodd" clip-rule="evenodd" d="M108 53.2612C108 52.2573 106.729 52.1737 106.041 52.9049C101.031 58.2312 86.9727 62.067 70.4135 62.067C53.8544 62.067 39.7963 58.2312 34.7863 52.9049C34.0984 52.1736 32.8271 52.2573 32.8271 53.2612V78.5354C32.8271 78.5545 32.8426 78.57 32.8617 78.57C32.8787 78.57 32.8931 78.5822 32.8959 78.5989C34.0807 85.6522 50.425 91.2412 70.4136 91.2412C90.4022 91.2412 106.747 85.6521 107.931 78.5989C107.934 78.5821 107.948 78.57 107.965 78.57C107.984 78.57 108 78.5545 108 78.5355V77.795L108 77.7777L108 77.7604V53.2612Z" fill="#F8576A"/>
</g>
<g filter="url(#filter1_i_463_22025)">
<path fill-rule="evenodd" clip-rule="evenodd" d="M64.8604 33.7504C64.8604 33.0647 64.283 32.5187 63.5987 32.5636C46.0937 33.712 32.8271 39.2042 32.8271 45.8064C32.8271 53.242 49.6552 59.2698 70.4135 59.2698C91.1719 59.2698 108 53.242 108 45.8064C108 39.3339 95.2493 33.9282 78.2547 32.6363C77.5662 32.5839 76.9813 33.1317 76.9813 33.8221V44.0827C76.9813 47.4297 74.2679 50.1431 70.9209 50.1431C67.5738 50.1431 64.8604 47.4298 64.8604 44.0827V33.7504Z" fill="#FFC2C9"/>
</g>
<rect x="67.4586" y="14.9199" width="6.99282" height="33.2627" rx="3.49641" fill="#F8576A"/>
<g filter="url(#filter2_i_463_22025)">
<path d="M79.7456 21.2555C79.7456 25.6294 75.8321 29.1751 71.0046 29.1751C66.177 29.1751 62.2635 25.6294 62.2635 21.2555C62.2635 16.8815 71.0046 7 71.0046 7C71.0046 7 79.7456 16.8815 79.7456 21.2555Z" fill="#FF94A1"/>
</g>
<defs>
<filter id="filter0_i_463_22025" x="30.4341" y="47.6359" width="77.5659" height="43.6053" filterUnits="userSpaceOnUse" color-interpolation-filters="sRGB">
<feFlood flood-opacity="0" result="BackgroundImageFix"/>
<feBlend mode="normal" in="SourceGraphic" in2="BackgroundImageFix" result="shape"/>
<feColorMatrix in="SourceAlpha" type="matrix" values="0 0 0 0 0 0 0 0 0 0 0 0 0 0 0 0 0 0 127 0" result="hardAlpha"/>
<feOffset dx="-2.393" dy="-5.98251"/>
<feGaussianBlur stdDeviation="2.393"/>
<feComposite in2="hardAlpha" operator="arithmetic" k2="-1" k3="1"/>
<feColorMatrix type="matrix" values="0 0 0 0 1 0 0 0 0 0.289394 0 0 0 0 0.373254 0 0 0 1 0"/>
<feBlend mode="normal" in2="shape" result="effect1_innerShadow_463_22025"/>
</filter>
<filter id="filter1_i_463_22025" x="32.8271" y="32.561" width="75.1728" height="29.102" filterUnits="userSpaceOnUse" color-interpolation-filters="sRGB">
<feFlood flood-opacity="0" result="BackgroundImageFix"/>
<feBlend mode="normal" in="SourceGraphic" in2="BackgroundImageFix" result="shape"/>
<feColorMatrix in="SourceAlpha" type="matrix" values="0 0 0 0 0 0 0 0 0 0 0 0 0 0 0 0 0 0 127 0" result="hardAlpha"/>
<feOffset dy="2.393"/>
<feGaussianBlur stdDeviation="2.393"/>
<feComposite in2="hardAlpha" operator="arithmetic" k2="-1" k3="1"/>
<feColorMatrix type="matrix" values="0 0 0 0 1 0 0 0 0 0.91856 0 0 0 0 0.927906 0 0 0 0.8 0"/>
<feBlend mode="normal" in2="shape" result="effect1_innerShadow_463_22025"/>
</filter>
<filter id="filter2_i_463_22025" x="62.2635" y="7" width="19.8751" height="24.5683" filterUnits="userSpaceOnUse" color-interpolation-filters="sRGB">
<feFlood flood-opacity="0" result="BackgroundImageFix"/>
<feBlend mode="normal" in="SourceGraphic" in2="BackgroundImageFix" result="shape"/>
<feColorMatrix in="SourceAlpha" type="matrix" values="0 0 0 0 0 0 0 0 0 0 0 0 0 0 0 0 0 0 127 0" result="hardAlpha"/>
<feOffset dx="2.393" dy="2.393"/>
<feGaussianBlur stdDeviation="2.393"/>
<feComposite in2="hardAlpha" operator="arithmetic" k2="-1" k3="1"/>
<feColorMatrix type="matrix" values="0 0 0 0 1 0 0 0 0 1 0 0 0 0 1 0 0 0 0.5 0"/>
<feBlend mode="normal" in2="shape" result="effect1_innerShadow_463_22025"/>
</filter>
</defs>
</svg>
