<svg width="156" height="155" viewBox="0 0 156 155" fill="none" xmlns="http://www.w3.org/2000/svg">
<mask id="path-1-outside-1_475_23062" maskUnits="userSpaceOnUse" x="18.7284" y="15.7024" width="118.64" height="124.535" fill="black">
<rect fill="white" x="18.7284" y="15.7024" width="118.64" height="124.535"/>
<path fill-rule="evenodd" clip-rule="evenodd" d="M72.204 57.5237C71.6949 56.6003 71.8093 55.4661 72.2729 54.5191C73.4771 52.0587 73.5032 49.0697 72.0803 46.4886C70.4818 43.589 63.8772 40.1676 59.9267 38.3212C58.3884 37.6022 56.6404 38.5658 56.4271 40.2504C55.8794 44.5766 55.2465 51.9878 56.845 54.8875C58.2734 57.4785 60.8288 59.0542 63.564 59.3407C64.5935 59.4486 65.5885 59.9375 66.0883 60.844V60.844C66.7693 62.0795 66.3381 63.6308 65.1415 64.3779C49.6614 74.0434 40.3536 86.2322 43.9632 92.78C44.0987 93.0257 44.2506 93.2603 44.4184 93.4838C44.4292 93.4982 44.4248 93.5189 44.4091 93.5276V93.5276C44.3948 93.5354 44.3896 93.5534 44.3975 93.5677L59.921 121.727L60.3245 122.459C60.3336 122.475 60.3543 122.481 60.3709 122.472V122.472C60.3857 122.464 60.4042 122.468 60.4145 122.481C65.1844 128.699 82.3939 126.224 99.8158 116.62C117.238 107.015 128.518 93.7851 125.807 86.4322C125.801 86.4163 125.808 86.3986 125.823 86.3904V86.3904C125.839 86.3813 125.845 86.3606 125.836 86.344L125.433 85.6121L109.909 57.4528C109.901 57.4385 109.883 57.4333 109.869 57.4412V57.4412C109.853 57.4499 109.833 57.4425 109.827 57.4257C109.728 57.1645 109.61 56.9109 109.475 56.6651C105.981 50.327 91.5558 51.4015 75.7273 58.669C74.4388 59.2606 72.8885 58.7654 72.204 57.5237V57.5237Z"/>
</mask>
<g filter="url(#filter0_ii_475_23062)">
<path fill-rule="evenodd" clip-rule="evenodd" d="M72.204 57.5237C71.6949 56.6003 71.8093 55.4661 72.2729 54.5191C73.4771 52.0587 73.5032 49.0697 72.0803 46.4886C70.4818 43.589 63.8772 40.1676 59.9267 38.3212C58.3884 37.6022 56.6404 38.5658 56.4271 40.2504C55.8794 44.5766 55.2465 51.9878 56.845 54.8875C58.2734 57.4785 60.8288 59.0542 63.564 59.3407C64.5935 59.4486 65.5885 59.9375 66.0883 60.844V60.844C66.7693 62.0795 66.3381 63.6308 65.1415 64.3779C49.6614 74.0434 40.3536 86.2322 43.9632 92.78C44.0987 93.0257 44.2506 93.2603 44.4184 93.4838C44.4292 93.4982 44.4248 93.5189 44.4091 93.5276V93.5276C44.3948 93.5354 44.3896 93.5534 44.3975 93.5677L59.921 121.727L60.3245 122.459C60.3336 122.475 60.3543 122.481 60.3709 122.472V122.472C60.3857 122.464 60.4042 122.468 60.4145 122.481C65.1844 128.699 82.3939 126.224 99.8158 116.62C117.238 107.015 128.518 93.7851 125.807 86.4322C125.801 86.4163 125.808 86.3986 125.823 86.3904V86.3904C125.839 86.3813 125.845 86.3606 125.836 86.344L125.433 85.6121L109.909 57.4528C109.901 57.4385 109.883 57.4333 109.869 57.4412V57.4412C109.853 57.4499 109.833 57.4425 109.827 57.4257C109.728 57.1645 109.61 56.9109 109.475 56.6651C105.981 50.327 91.5558 51.4015 75.7273 58.669C74.4388 59.2606 72.8885 58.7654 72.204 57.5237V57.5237Z" fill="white"/>
</g>
<path d="M125.433 85.6121L128.22 84.0753L125.433 85.6121ZM75.7273 58.669L77.0556 61.5619L75.7273 58.669ZM109.827 57.4257L112.802 56.2931L109.827 57.4257ZM125.836 86.344L128.624 84.8072L125.836 86.344ZM60.4145 122.481L57.8888 124.419L60.4145 122.481ZM60.3709 122.472L58.8341 119.685L60.3709 122.472ZM109.869 57.4412L108.332 54.6535L109.869 57.4412ZM65.1415 64.3779L63.4555 61.6777L65.1415 64.3779ZM44.4184 93.4838L41.8725 95.3948L44.4184 93.4838ZM44.4091 93.5276L45.9459 96.3153L44.4091 93.5276ZM125.807 86.4322L128.794 85.3309L128.794 85.3309L125.807 86.4322ZM125.823 86.3904L124.286 83.6027L125.823 86.3904ZM59.9267 38.3212L58.5788 41.205L59.9267 38.3212ZM72.2729 54.5191L69.4137 53.1197L72.2729 54.5191ZM69.2926 48.0254C70.1935 49.6596 70.1814 51.5512 69.4137 53.1197L75.132 55.9185C76.7728 52.5662 76.8129 48.4798 74.868 44.9518L69.2926 48.0254ZM58.5788 41.205C60.5055 42.1055 63.0186 43.3628 65.2124 44.7181C66.3101 45.3962 67.2717 46.0647 68.0204 46.6908C68.8102 47.3512 69.1732 47.8089 69.2926 48.0254L74.868 44.9518C74.1882 43.7186 73.1262 42.6612 72.1045 41.8069C71.0418 40.9182 69.8057 40.0723 68.5586 39.3018C66.0628 37.7599 63.2984 36.3833 61.2745 35.4374L58.5788 41.205ZM59.6328 53.3506C59.5134 53.1341 59.3202 52.5828 59.1834 51.5624C59.0537 50.5951 59.0018 49.4251 59.0143 48.1349C59.0395 45.5564 59.318 42.7601 59.5852 40.6502L53.2691 39.8506C52.9885 42.0669 52.6767 45.1393 52.6481 48.0728C52.6338 49.5387 52.6892 51.0355 52.8733 52.4085C53.0503 53.7285 53.3774 55.191 54.0573 56.4243L59.6328 53.3506ZM63.8956 56.1748C62.1519 55.9921 60.5371 54.9911 59.6328 53.3506L54.0573 56.4243C56.0097 59.9659 59.5056 62.1163 63.2324 62.5067L63.8956 56.1748ZM63.4555 61.6777C55.4862 66.6536 48.9581 72.3645 44.8484 77.8364C42.7972 80.5676 41.2504 83.3689 40.5026 86.0977C39.7494 88.846 39.7573 91.7443 41.1755 94.3168L46.751 91.2432C46.3643 90.5418 46.1821 89.4611 46.6427 87.7804C47.1086 86.0802 48.1795 84.0025 49.939 81.6598C53.4508 76.984 59.3166 71.7677 66.8274 67.0781L63.4555 61.6777ZM41.1755 94.3168C41.3834 94.6939 41.6163 95.0534 41.8725 95.3948L46.9643 91.5729C46.8849 91.4672 46.814 91.3576 46.751 91.2432L41.1755 94.3168ZM41.6097 95.1045L57.1332 123.264L62.7087 120.19L47.1852 92.0308L41.6097 95.1045ZM57.1332 123.264L57.5367 123.996L63.1122 120.922L62.7087 120.19L57.1332 123.264ZM57.8888 124.419C59.7233 126.81 62.5326 128.088 65.5314 128.665C68.55 129.246 72.0745 129.187 75.8345 128.633C83.3665 127.524 92.3867 124.35 101.353 119.407L98.279 113.832C89.8229 118.493 81.5275 121.359 74.9068 122.335C71.5905 122.823 68.8294 122.817 66.7352 122.414C64.6213 122.006 63.4907 121.262 62.9402 120.544L57.8888 124.419ZM101.353 119.407C110.318 114.465 117.818 108.532 122.777 102.755C125.252 99.8714 127.184 96.923 128.304 94.0602C129.417 91.2162 129.837 88.1587 128.794 85.3309L122.82 87.5336C123.133 88.3822 123.16 89.7358 122.375 91.7406C121.598 93.7266 120.13 96.0646 117.946 98.6081C113.587 103.686 106.735 109.17 98.279 113.832L101.353 119.407ZM128.624 84.8072L128.22 84.0753L122.645 87.1489L123.048 87.8808L128.624 84.8072ZM128.22 84.0753L112.697 55.916L107.121 58.9896L122.645 87.1489L128.22 84.0753ZM112.802 56.2931C112.65 55.8943 112.471 55.5054 112.263 55.1283L106.687 58.2019C106.75 58.3163 106.805 58.4348 106.852 58.5583L112.802 56.2931ZM112.263 55.1283C110.891 52.6397 108.553 51.1018 105.934 50.2538C103.337 49.413 100.279 49.1801 97.0235 49.3882C90.5028 49.8048 82.5517 52.0328 74.3991 55.776L77.0556 61.5619C84.7313 58.0376 91.9071 56.0946 97.4295 55.7417C100.195 55.565 102.388 55.7976 103.973 56.3108C105.536 56.8168 106.312 57.5215 106.687 58.2019L112.263 55.1283ZM74.3991 55.776C74.5101 55.7251 74.6259 55.725 74.7185 55.7549C74.8131 55.7855 74.9222 55.8608 74.9917 55.9869L69.4163 59.0605C70.9213 61.7906 74.2809 62.8358 77.0556 61.5619L74.3991 55.776ZM108.332 54.6535C110.022 53.7221 112.124 54.5134 112.802 56.2931L106.852 58.5583C107.542 60.3717 109.685 61.1777 111.406 60.2289L108.332 54.6535ZM127.36 89.1782C128.916 88.3203 129.482 86.3634 128.624 84.8072L123.048 87.8808C122.209 86.3577 122.763 84.4423 124.286 83.6027L127.36 89.1782ZM61.9077 125.26C60.5475 126.01 58.8385 125.657 57.8888 124.419L62.9402 120.544C61.9699 119.279 60.2239 118.918 58.8341 119.685L61.9077 125.26ZM57.5367 123.996C58.3946 125.552 60.3515 126.118 61.9077 125.26L58.8341 119.685C60.3572 118.845 62.2725 119.399 63.1122 120.922L57.5367 123.996ZM42.8722 90.7398C41.3184 91.5965 40.7531 93.5506 41.6097 95.1045L47.1852 92.0308C48.0261 93.5562 47.4712 95.4744 45.9459 96.3153L42.8722 90.7398ZM112.697 55.916C111.84 54.362 109.886 53.7969 108.332 54.6535L111.406 60.2289C109.881 61.0697 107.962 60.515 107.121 58.9896L112.697 55.916ZM63.3006 62.3808C63.1366 62.0834 63.2689 61.7943 63.4555 61.6777L66.8274 67.0781C69.4073 65.4672 70.4021 62.0755 68.876 59.3072L63.3006 62.3808ZM63.2324 62.5067C63.2962 62.5134 63.3503 62.5251 63.3918 62.5378C63.4334 62.5506 63.454 62.5616 63.4567 62.5631C63.4588 62.5643 63.4385 62.5531 63.4066 62.5221C63.3733 62.4896 63.3344 62.4422 63.3006 62.3808L68.876 59.3072C67.7214 57.2128 65.6026 56.3536 63.8956 56.1748L63.2324 62.5067ZM41.8725 95.3948C40.7293 93.8717 41.1827 91.6712 42.8722 90.7398L45.9459 96.3153C47.6669 95.3665 48.1291 93.1248 46.9643 91.5729L41.8725 95.3948ZM128.794 85.3309C129.334 86.7949 128.72 88.4284 127.36 89.1782L124.286 83.6027C122.896 84.3689 122.269 86.0377 122.82 87.5336L128.794 85.3309ZM61.2745 35.4374C57.7805 33.8043 53.7535 36.0243 53.2691 39.8506L59.5852 40.6502C59.5597 40.8512 59.4214 41.0594 59.2168 41.1722C59.0122 41.285 58.7623 41.2908 58.5788 41.205L61.2745 35.4374ZM69.4137 53.1197C68.6477 54.6848 68.2585 56.9603 69.4163 59.0605L74.9917 55.9869C75.0232 56.044 75.04 56.0959 75.0478 56.1328C75.0553 56.1679 75.0534 56.1821 75.0539 56.1711C75.0544 56.1595 75.0573 56.1289 75.07 56.0811C75.0828 56.0335 75.103 55.9777 75.132 55.9185L69.4137 53.1197Z" fill="white" mask="url(#path-1-outside-1_475_23062)"/>
<g filter="url(#filter1_ii_475_23062)">
<path fill-rule="evenodd" clip-rule="evenodd" d="M109.895 57.4271L44.3833 93.542L59.908 121.703C59.9123 121.711 59.9166 121.719 59.921 121.727C59.9253 121.735 59.9297 121.743 59.9341 121.751L60.341 122.489L60.3967 122.458C65.1415 128.706 82.3722 126.236 99.8158 116.62C117.259 107.003 128.547 93.7522 125.797 86.4049L125.853 86.3741L109.895 57.4271Z" fill="#91BBFF"/>
</g>
<g filter="url(#filter2_i_475_23062)">
<ellipse cx="76.7191" cy="74.7226" rx="37.4034" ry="14.7874" transform="rotate(-28.8668 76.7191 74.7226)" fill="#D6E7FF"/>
</g>
<g filter="url(#filter3_i_475_23062)">
<rect x="58.0561" y="46.2734" width="6.95877" height="36.5336" rx="0.530545" transform="rotate(-28.8668 58.0561 46.2734)" fill="#84B5FE"/>
</g>
<g filter="url(#filter4_ii_475_23062)">
<path d="M72.0803 46.4887C74.3996 50.6958 72.8692 55.9865 68.6621 58.3058C64.455 60.625 59.1643 59.0946 56.8451 54.8875C54.5258 50.6804 56.9038 36.9764 56.9038 36.9764C56.9038 36.9764 69.7611 42.2816 72.0803 46.4887Z" fill="#F8576A"/>
</g>
<defs>
<filter id="filter0_ii_475_23062" x="40.0045" y="34.8945" width="90.449" height="94.7117" filterUnits="userSpaceOnUse" color-interpolation-filters="sRGB">
<feFlood flood-opacity="0" result="BackgroundImageFix"/>
<feBlend mode="normal" in="SourceGraphic" in2="BackgroundImageFix" result="shape"/>
<feColorMatrix in="SourceAlpha" type="matrix" values="0 0 0 0 0 0 0 0 0 0 0 0 0 0 0 0 0 0 127 0" result="hardAlpha"/>
<feOffset dy="1.06109"/>
<feGaussianBlur stdDeviation="0.265272"/>
<feComposite in2="hardAlpha" operator="arithmetic" k2="-1" k3="1"/>
<feColorMatrix type="matrix" values="0 0 0 0 1 0 0 0 0 0.137499 0 0 0 0 0.239285 0 0 0 0.25 0"/>
<feBlend mode="normal" in2="shape" result="effect1_innerShadow_475_23062"/>
<feColorMatrix in="SourceAlpha" type="matrix" values="0 0 0 0 0 0 0 0 0 0 0 0 0 0 0 0 0 0 127 0" result="hardAlpha"/>
<feOffset dx="1.06109" dy="0.530545"/>
<feGaussianBlur stdDeviation="1.06109"/>
<feComposite in2="hardAlpha" operator="arithmetic" k2="-1" k3="1"/>
<feColorMatrix type="matrix" values="0 0 0 0 1 0 0 0 0 1 0 0 0 0 1 0 0 0 0.5 0"/>
<feBlend mode="normal" in2="effect1_innerShadow_475_23062" result="effect2_innerShadow_475_23062"/>
</filter>
<filter id="filter1_ii_475_23062" x="43.8528" y="56.8967" width="82.3559" height="70.057" filterUnits="userSpaceOnUse" color-interpolation-filters="sRGB">
<feFlood flood-opacity="0" result="BackgroundImageFix"/>
<feBlend mode="normal" in="SourceGraphic" in2="BackgroundImageFix" result="shape"/>
<feColorMatrix in="SourceAlpha" type="matrix" values="0 0 0 0 0 0 0 0 0 0 0 0 0 0 0 0 0 0 127 0" result="hardAlpha"/>
<feOffset dy="1.06109"/>
<feGaussianBlur stdDeviation="2.65272"/>
<feComposite in2="hardAlpha" operator="arithmetic" k2="-1" k3="1"/>
<feColorMatrix type="matrix" values="0 0 0 0 0.188235 0 0 0 0 0.541176 0 0 0 0 0.976471 0 0 0 0.5 0"/>
<feBlend mode="normal" in2="shape" result="effect1_innerShadow_475_23062"/>
<feColorMatrix in="SourceAlpha" type="matrix" values="0 0 0 0 0 0 0 0 0 0 0 0 0 0 0 0 0 0 127 0" result="hardAlpha"/>
<feOffset dx="-0.530545" dy="-0.530545"/>
<feGaussianBlur stdDeviation="0.530545"/>
<feComposite in2="hardAlpha" operator="arithmetic" k2="-1" k3="1"/>
<feColorMatrix type="matrix" values="0 0 0 0 0.211765 0 0 0 0 0.560784 0 0 0 0 0.992157 0 0 0 1 0"/>
<feBlend mode="normal" in2="effect1_innerShadow_475_23062" result="effect2_innerShadow_475_23062"/>
</filter>
<filter id="filter2_i_475_23062" x="42.6567" y="51.9695" width="67.5942" height="44.9759" filterUnits="userSpaceOnUse" color-interpolation-filters="sRGB">
<feFlood flood-opacity="0" result="BackgroundImageFix"/>
<feBlend mode="normal" in="SourceGraphic" in2="BackgroundImageFix" result="shape"/>
<feColorMatrix in="SourceAlpha" type="matrix" values="0 0 0 0 0 0 0 0 0 0 0 0 0 0 0 0 0 0 127 0" result="hardAlpha"/>
<feOffset dx="-0.530545" dy="-0.530545"/>
<feGaussianBlur stdDeviation="0.530545"/>
<feComposite in2="hardAlpha" operator="arithmetic" k2="-1" k3="1"/>
<feColorMatrix type="matrix" values="0 0 0 0 0.54902 0 0 0 0 0.8 0 0 0 0 1 0 0 0 1 0"/>
<feBlend mode="normal" in2="shape" result="effect1_innerShadow_475_23062"/>
</filter>
<filter id="filter3_i_475_23062" x="58.2462" y="43.104" width="23.8819" height="36.0342" filterUnits="userSpaceOnUse" color-interpolation-filters="sRGB">
<feFlood flood-opacity="0" result="BackgroundImageFix"/>
<feBlend mode="normal" in="SourceGraphic" in2="BackgroundImageFix" result="shape"/>
<feColorMatrix in="SourceAlpha" type="matrix" values="0 0 0 0 0 0 0 0 0 0 0 0 0 0 0 0 0 0 127 0" result="hardAlpha"/>
<feOffset dx="0.530545" dy="1.06109"/>
<feGaussianBlur stdDeviation="0.530545"/>
<feComposite in2="hardAlpha" operator="arithmetic" k2="-1" k3="1"/>
<feColorMatrix type="matrix" values="0 0 0 0 0.215686 0 0 0 0 0.572549 0 0 0 0 0.972549 0 0 0 1 0"/>
<feBlend mode="normal" in2="shape" result="effect1_innerShadow_475_23062"/>
</filter>
<filter id="filter4_ii_475_23062" x="55.8293" y="36.9766" width="18.3946" height="22.9422" filterUnits="userSpaceOnUse" color-interpolation-filters="sRGB">
<feFlood flood-opacity="0" result="BackgroundImageFix"/>
<feBlend mode="normal" in="SourceGraphic" in2="BackgroundImageFix" result="shape"/>
<feColorMatrix in="SourceAlpha" type="matrix" values="0 0 0 0 0 0 0 0 0 0 0 0 0 0 0 0 0 0 127 0" result="hardAlpha"/>
<feOffset dy="1.06109"/>
<feGaussianBlur stdDeviation="0.265272"/>
<feComposite in2="hardAlpha" operator="arithmetic" k2="-1" k3="1"/>
<feColorMatrix type="matrix" values="0 0 0 0 1 0 0 0 0 0.137499 0 0 0 0 0.239285 0 0 0 0.25 0"/>
<feBlend mode="normal" in2="shape" result="effect1_innerShadow_475_23062"/>
<feColorMatrix in="SourceAlpha" type="matrix" values="0 0 0 0 0 0 0 0 0 0 0 0 0 0 0 0 0 0 127 0" result="hardAlpha"/>
<feOffset dx="1.06109" dy="0.530545"/>
<feGaussianBlur stdDeviation="1.06109"/>
<feComposite in2="hardAlpha" operator="arithmetic" k2="-1" k3="1"/>
<feColorMatrix type="matrix" values="0 0 0 0 1 0 0 0 0 1 0 0 0 0 1 0 0 0 0.5 0"/>
<feBlend mode="normal" in2="effect1_innerShadow_475_23062" result="effect2_innerShadow_475_23062"/>
</filter>
</defs>
</svg>
