<svg width="250" height="58" viewBox="0 0 250 58" fill="none" xmlns="http://www.w3.org/2000/svg">
<path d="M0 55.7327V3.09626H10.1239V25.5441H21.8584L42.5664 3.09626H55.0679L30.7552 29.4145L55.0679 55.7327H42.5664L22.1652 33.6718H10.1239V55.7327H0Z" fill="white"/>
<path d="M63.0761 37.0003C63.434 40.6126 64.7123 43.5024 66.9109 45.6698C69.5697 48.25 74.0693 49.5401 80.4095 49.5401C85.7782 49.5401 89.5108 48.8693 91.6071 47.5276C93.7035 46.1859 95.084 44.3023 95.7487 41.8769H105.796C104.773 46.6761 102.268 50.4432 98.2797 53.1782C94.3426 55.8617 88.3859 57.2034 80.4095 57.2034C73.8647 57.2034 68.5982 56.3003 64.61 54.4942C60.6218 52.6364 57.7329 50.0304 55.9434 46.6761C54.1538 43.3218 53.259 39.3483 53.259 34.7555C53.259 29.9563 54.1538 25.8796 55.9434 22.5253C57.7329 19.171 60.5963 16.6166 64.5333 14.862C68.4704 13.1075 73.6091 12.2302 79.9493 12.2302C86.7497 12.2302 91.8117 13.1591 95.1352 15.0169C98.5098 16.823 101.066 19.4032 102.805 22.7575C104.594 26.0602 105.489 30.0337 105.489 34.6781V37.0003H63.0761ZM95.5953 31.7367C95.2374 28.3824 94.1892 25.699 92.4508 23.6864C90.2522 21.1062 86.085 19.8161 79.9493 19.8161C73.8136 19.8161 69.4419 21.132 66.8342 23.7638C64.8401 25.7764 63.613 28.434 63.1528 31.7367H95.5953Z" fill="white"/>
<path d="M106.909 21.0546V13.7009H142.956V21.0546L116.802 48.379H144.106V55.7327H106.142V48.379L132.372 21.0546H106.909Z" fill="white"/>
<path d="M146.012 21.0546V13.7009H182.059V21.0546L155.906 48.379H183.209V55.7327H145.245V48.379L171.475 21.0546H146.012Z" fill="white"/>
<path d="M185.575 55.7327V0H195.162V55.7327H185.575Z" fill="white"/>
<path d="M207.28 37.0003C207.638 40.6126 208.916 43.5024 211.115 45.6698C213.774 48.25 218.273 49.5401 224.614 49.5401C229.982 49.5401 233.715 48.8693 235.811 47.5276C237.908 46.1859 239.288 44.3023 239.953 41.8769H250C248.977 46.6761 246.472 50.4432 242.484 53.1782C238.547 55.8617 232.59 57.2034 224.614 57.2034C218.069 57.2034 212.802 56.3003 208.814 54.4942C204.826 52.6364 201.937 50.0304 200.147 46.6761C198.358 43.3218 197.463 39.3483 197.463 34.7555C197.463 29.9563 198.358 25.8796 200.147 22.5253C201.937 19.171 204.8 16.6166 208.737 14.862C212.674 13.1075 217.813 12.2302 224.153 12.2302C230.954 12.2302 236.016 13.1591 239.339 15.0169C242.714 16.823 245.27 19.4032 247.009 22.7575C248.798 26.0602 249.693 30.0337 249.693 34.6781V37.0003H207.28ZM239.799 31.7367C239.441 28.3824 238.393 25.699 236.655 23.6864C234.456 21.1062 230.289 19.8161 224.153 19.8161C218.018 19.8161 213.646 21.132 211.038 23.7638C209.044 25.7764 207.817 28.434 207.357 31.7367H239.799Z" fill="white"/>
</svg>
